<?xml version="1.0" encoding="utf-8"?>
<!-- Generator: Adobe Illustrator 25.4.1, SVG Export Plug-In . SVG Version: 6.00 Build 0)  -->
<svg version="1.1" id="Layer_1" xmlns="http://www.w3.org/2000/svg" xmlns:xlink="http://www.w3.org/1999/xlink" x="0px" y="0px"
	 viewBox="0 0 250 250" style="enable-background:new 0 0 250 250;" xml:space="preserve">
<style type="text/css">
	.st0{fill:#0D5AA9;stroke:#0D5AA9;stroke-width:0.5;stroke-miterlimit:10;}
</style>
<g>
	<g>
		<path class="st0" d="M181.9,234.3H68.1c-2.5,0-4.6-2.1-4.6-4.6V55c0-2.5,2.1-4.6,4.6-4.6h22.2c1.4,0,2.6,1.2,2.6,2.6
			c0,1.4-1.2,2.6-2.6,2.6H68.7v173.5h112.5V55.6h-21.6c-1.4,0-2.6-1.2-2.6-2.6c0-1.4,1.2-2.6,2.6-2.6h22.2c2.5,0,4.6,2.1,4.6,4.6
			v174.7C186.5,232.2,184.4,234.3,181.9,234.3z"/>
	</g>
	<g>
		<path class="st0" d="M64.2,234.3H5.4c-2.5,0-4.6-2.1-4.6-4.6V83.9c0-2.5,2.1-4.6,4.6-4.6h58.8c2.5,0,4.6,2.1,4.6,4.6v145.8
			C68.7,232.2,66.7,234.3,64.2,234.3z M6,229.1h57.5V84.6H6V229.1z"/>
	</g>
	<g>
		<path class="st0" d="M244.6,234.3h-58.8c-2.5,0-4.6-2.1-4.6-4.6V83.9c0-2.5,2.1-4.6,4.6-4.6h58.8c2.5,0,4.6,2.1,4.6,4.6v145.8
			C249.2,232.2,247.1,234.3,244.6,234.3z M186.5,229.1H244V84.6h-57.5V229.1z"/>
	</g>
	<g>
		<path class="st0" d="M125,90.3c-9.9,0-19.3-3.9-26.3-10.9c-7-7-10.9-16.4-10.9-26.3c0-9.9,3.9-19.3,10.9-26.3
			c7-7,16.4-10.9,26.3-10.9c9.9,0,19.3,3.9,26.3,10.9c7,7,10.9,16.4,10.9,26.3c0,9.9-3.9,19.3-10.9,26.3
			C144.3,86.4,134.9,90.3,125,90.3z M125,21c-17.7,0-32,14.4-32,32c0,17.7,14.4,32,32,32c17.7,0,32-14.4,32-32
			C157,35.4,142.7,21,125,21z"/>
	</g>
	<g>
		<path class="st0" d="M131.2,76h-12.4c-1.7,0-3.2-1.4-3.2-3.2V62.4h-10.4c-1.7,0-3.2-1.4-3.2-3.2V46.8c0-1.7,1.4-3.2,3.2-3.2h10.4
			V33.3c0-1.7,1.4-3.2,3.2-3.2h12.4c1.7,0,3.2,1.4,3.2,3.2v10.4h10.4c1.7,0,3.2,1.4,3.2,3.2v12.4c0,1.7-1.4,3.2-3.2,3.2h-10.4v10.4
			C134.4,74.6,133,76,131.2,76z M120.8,70.8h8.4V60.4c0-1.7,1.4-3.2,3.2-3.2h10.4v-8.4h-10.4c-1.7,0-3.2-1.4-3.2-3.2V35.3h-8.4v10.4
			c0,1.7-1.4,3.2-3.2,3.2h-10.4v8.4h10.4c1.7,0,3.2,1.4,3.2,3.2V70.8z"/>
	</g>
	<g>
		<g>
			<g>
				<path class="st0" d="M164.5,128h-15.9c-1.7,0-3-1.3-3-3v-16c0-1.7,1.3-3,3-3h15.9c1.7,0,3,1.3,3,3v16
					C167.4,126.6,166.1,128,164.5,128z M150.8,122.8h11.5v-11.6h-11.5V122.8z"/>
			</g>
			<g>
				<path class="st0" d="M133,128H117c-1.7,0-3-1.3-3-3v-16c0-1.7,1.3-3,3-3H133c1.7,0,3,1.3,3,3v16C135.9,126.6,134.6,128,133,128z
					 M119.3,122.8h11.5v-11.6h-11.5V122.8z"/>
			</g>
			<g>
				<path class="st0" d="M101.5,128H85.5c-1.7,0-3-1.3-3-3v-16c0-1.7,1.3-3,3-3h15.9c1.7,0,3,1.3,3,3v16
					C104.5,126.6,103.1,128,101.5,128z M87.8,122.8h11.5v-11.6H87.8V122.8z"/>
			</g>
		</g>
		<g>
			<g>
				<path class="st0" d="M164.5,161.7h-15.9c-1.7,0-3-1.3-3-3v-16c0-1.7,1.3-3,3-3h15.9c1.7,0,3,1.3,3,3v16
					C167.4,160.4,166.1,161.7,164.5,161.7z M150.8,156.5h11.5V145h-11.5V156.5z"/>
			</g>
			<g>
				<path class="st0" d="M133,161.7H117c-1.7,0-3-1.3-3-3v-16c0-1.7,1.3-3,3-3H133c1.7,0,3,1.3,3,3v16
					C135.9,160.4,134.6,161.7,133,161.7z M119.3,156.5h11.5V145h-11.5V156.5z"/>
			</g>
			<g>
				<path class="st0" d="M101.5,161.7H85.5c-1.7,0-3-1.3-3-3v-16c0-1.7,1.3-3,3-3h15.9c1.7,0,3,1.3,3,3v16
					C104.5,160.4,103.1,161.7,101.5,161.7z M87.8,156.5h11.5V145H87.8V156.5z"/>
			</g>
		</g>
	</g>
	<g>
		<path class="st0" d="M150.5,234.3h-51c-1.9,0-3.3-1.3-3.3-3v-50.8c0-1.7,1.5-3,3.3-3h51c1.9,0,3.3,1.3,3.3,3v50.8
			C153.8,233,152.4,234.3,150.5,234.3z M101.4,229.1h47.2v-46.4h-47.2V229.1z"/>
	</g>
	<g>
		<g>
			<g>
				<path class="st0" d="M42.8,136.3h-16c-1.7,0-3-1.3-3-3v-15.9c0-1.7,1.3-3,3-3h16c1.7,0,3,1.3,3,3v15.9
					C45.8,134.9,44.4,136.3,42.8,136.3z M29,131.1h11.6v-11.5H29V131.1z"/>
			</g>
		</g>
		<g>
			<g>
				<path class="st0" d="M42.8,167.8h-16c-1.7,0-3-1.3-3-3v-15.9c0-1.7,1.3-3,3-3h16c1.7,0,3,1.3,3,3v15.9
					C45.8,166.4,44.4,167.8,42.8,167.8z M29,162.6h11.6v-11.5H29V162.6z"/>
			</g>
		</g>
		<g>
			<g>
				<path class="st0" d="M42.8,199.3h-16c-1.7,0-3-1.3-3-3v-15.9c0-1.7,1.3-3,3-3h16c1.7,0,3,1.3,3,3v15.9
					C45.8,197.9,44.4,199.3,42.8,199.3z M29,194.1h11.6v-11.5H29V194.1z"/>
			</g>
		</g>
	</g>
	<g>
		<g>
			<g>
				<path class="st0" d="M223.2,136.3h-16c-1.7,0-3-1.3-3-3v-15.9c0-1.7,1.3-3,3-3h16c1.7,0,3,1.3,3,3v15.9
					C226.2,134.9,224.9,136.3,223.2,136.3z M209.4,131.1H221v-11.5h-11.6V131.1z"/>
			</g>
		</g>
		<g>
			<g>
				<path class="st0" d="M223.2,167.8h-16c-1.7,0-3-1.3-3-3v-15.9c0-1.7,1.3-3,3-3h16c1.7,0,3,1.3,3,3v15.9
					C226.2,166.4,224.9,167.8,223.2,167.8z M209.4,162.6H221v-11.5h-11.6V162.6z"/>
			</g>
		</g>
		<g>
			<g>
				<path class="st0" d="M223.2,199.3h-16c-1.7,0-3-1.3-3-3v-15.9c0-1.7,1.3-3,3-3h16c1.7,0,3,1.3,3,3v15.9
					C226.2,197.9,224.9,199.3,223.2,199.3z M209.4,194.1H221v-11.5h-11.6V194.1z"/>
			</g>
		</g>
	</g>
</g>
</svg>
