<?xml version="1.0" encoding="utf-8"?>
<!-- Generator: Adobe Illustrator 25.4.1, SVG Export Plug-In . SVG Version: 6.00 Build 0)  -->
<svg version="1.1" id="Layer_1" xmlns="http://www.w3.org/2000/svg" xmlns:xlink="http://www.w3.org/1999/xlink" x="0px" y="0px"
	 viewBox="0 0 250 250" style="enable-background:new 0 0 250 250;" xml:space="preserve">
<style type="text/css">
	.st0{fill:#0759AA;}
</style>
<g>
	<path class="st0" d="M49.9,193.3v10.2c0,0.9,0.4,1.8,1,2.4c-0.6,1.3-1,2.8-1,4.4c0,5.6,4.6,10.2,10.2,10.2
		c5.6,0,10.2-4.6,10.2-10.2s-4.6-10.2-10.2-10.2c-1.2,0-2.3,0.2-3.4,0.6v-7.4c0-11.3,9.2-20.5,20.5-20.5s20.5,9.2,20.5,20.5v7.4
		c-1.1-0.4-2.2-0.6-3.4-0.6c-5.6,0-10.2,4.6-10.2,10.2s4.6,10.2,10.2,10.2c5.6,0,10.2-4.6,10.2-10.2c0-1.6-0.4-3.1-1-4.4
		c0.6-0.6,1-1.5,1-2.4v-10.2c0-15.1-12.2-27.3-27.3-27.3S49.9,178.2,49.9,193.3z M60.1,206.9c1.9,0,3.4,1.5,3.4,3.4
		s-1.5,3.4-3.4,3.4c-1.9,0-3.4-1.5-3.4-3.4S58.3,206.9,60.1,206.9z M94.3,213.7c-1.9,0-3.4-1.5-3.4-3.4s1.5-3.4,3.4-3.4
		c1.9,0,3.4,1.5,3.4,3.4S96.2,213.7,94.3,213.7z"/>
	<path class="st0" d="M159.1,193.3c0,7.5,6.1,13.7,13.7,13.7c7.5,0,13.7-6.1,13.7-13.7s-6.1-13.7-13.7-13.7
		C165.3,179.6,159.1,185.7,159.1,193.3z M172.8,186.4c3.8,0,6.8,3.1,6.8,6.8s-3.1,6.8-6.8,6.8c-3.8,0-6.8-3.1-6.8-6.8
		S169,186.4,172.8,186.4z"/>
	<path class="st0" d="M194.3,160.1l-45.4-13.6l0-14.7c0-0.2,0-0.5-0.1-0.7c16.3-11,27.4-32.9,27.4-58c0-17.2-5.2-31.8-14.9-42.2
		c-9.2-9.8-22.1-15.1-36.3-15.1s-27.1,5.4-36.3,15.1C79,41.3,73.8,55.9,73.8,73.1c0,25.2,11.1,47,27.4,58c-0.1,0.2-0.1,0.5-0.1,0.7
		l0,14.7l-45.4,13.6c-11.6,3.5-19.5,14.1-19.5,26.2v34.3c0,7.5,6.1,13.7,13.7,13.7h150.2c7.5,0,13.7-6.1,13.7-13.7v-34.3
		C213.7,174.2,205.8,163.6,194.3,160.1z M125,22.6c23.4,0,40.1,15.8,43.7,40.3c-0.1,0-0.1,0-0.2,0C124.7,63.5,121.3,38,121.1,37
		c-0.2-1.7-1.5-2.9-3.2-3.1c-1.7-0.1-3.2,1-3.5,2.6c-2.1,8.7-6.1,14.8-11.8,18c-8.4,4.6-18.3,1.9-19.8,1.4
		C88.3,35.5,103.9,22.6,125,22.6z M80.6,73.1c0-3.6,0.3-7.1,0.8-10.4c3.4,1,14.4,3.4,24.5-2.1c5.1-2.8,9.1-7.1,11.9-13
		c1.2,2.2,2.8,4.5,4.9,6.8c6.5,7.1,19.4,15.4,44.4,15.4c0.5,0,1,0,1.4,0c0.2,0,0.5,0,0.7-0.1c0.1,1.1,0.1,2.3,0.1,3.4
		c0,32.4-19.9,58.8-44.4,58.8S80.6,105.5,80.6,73.1z M125,169.4c-4,0-7.9-0.9-11.4-2.5l-5.7-15.2l0-16.8c5.3,2.4,11.1,3.8,17.1,3.8
		c6,0,11.7-1.3,17.1-3.8l0,16.8l-5.7,15.2C132.9,168.5,129,169.4,125,169.4z M133.3,175.2l-8.3,22l-8.3-22c2.7,0.7,5.5,1,8.3,1
		C127.8,176.2,130.6,175.9,133.3,175.2z M206.9,220.6c0,3.8-3.1,6.8-6.8,6.8H49.9c-3.8,0-6.8-3.1-6.8-6.8v-34.3
		c0-9.1,5.9-17,14.6-19.6l16.1-4.8v4.1h3.4h3.4v-6.2l20.7-6.2l20.5,54.6c0.5,1.3,1.8,2.2,3.2,2.2c1.4,0,2.7-0.9,3.2-2.2l20.5-54.6
		l20.7,6.2v19.8h3.4h3.4v-17.8l16.1,4.8c8.7,2.6,14.6,10.5,14.6,19.6V220.6z"/>
</g>
</svg>
