<?xml version="1.0" encoding="utf-8"?>
<!-- Generator: Adobe Illustrator 25.3.1, SVG Export Plug-In . SVG Version: 6.00 Build 0)  -->
<svg version="1.1" id="Layer_1" xmlns="http://www.w3.org/2000/svg" xmlns:xlink="http://www.w3.org/1999/xlink" x="0px" y="0px"
	 viewBox="0 0 250 250" style="enable-background:new 0 0 250 250;" xml:space="preserve">
<style type="text/css">
	.st0{fill:#ED2C2B;}
	.st1{fill:#FFFFFF;}
</style>
<g>
	<path class="st0" d="M219.2,131.2"/>
	<path class="st0" d="M130,78.8"/>
	<path class="st1" d="M220.6,139.3c-5.5,0-9.9,4.4-9.9,9.9c0,3.1,1.4,5.9,3.7,7.7l0,0v14.6c0,1.6-0.8,3-2.2,3.8l-79,45.6
		c-1.3,0.8-3,0.8-4.4,0l-79-45.6c-1.3-0.8-2.2-2.2-2.2-3.8V170c0.3-0.1,0.6-0.2,0.9-0.3c1.2-0.6,4.9-2.4,9-9.4c0.5-0.9,0.6-2,0.3-3
		c3-6.1,3.5-11.3,4.1-17.8c0.2-1.7,0.5-5.7-2.5-8.2c-0.9-0.7-2.1-1.4-3.5-1.8c0,0-1-0.3-2.9-0.6c-0.4-0.7-0.9-1.3-1.5-1.7
		c-0.9-0.7-2.1-0.8-3.1-0.2c-1,0.5-1.6,1.5-1.6,2.7v3.5c0,1.1,0.6,2.1,1.6,2.7c1,0.5,2.2,0.4,3.1-0.2c0.6-0.4,1.1-1,1.4-1.6
		c2.6,0.6,3.2,1.2,3.2,1.2c0.9,0.7,0.9,2.4,0.7,4c-0.5,6.2-0.9,10.7-3.5,15.9c-0.9,0.2-1.7,0.8-2.2,1.7c-2,3.4-4,5.6-5.9,6.6
		c-2.4,1.2-5.4,1.2-7.9,0c-1.9-0.9-3.9-3.1-5.9-6.6c-0.5-0.8-1.3-1.4-2.2-1.7c-2.5-5.2-2.9-9.7-3.5-15.9c-0.1-1.6-0.2-3.3,0.7-4
		c0.4-0.3,1-0.6,1.8-0.9l1.4-0.4c0.4,0.6,0.9,1.2,1.4,1.6c0.9,0.7,2.1,0.8,3.1,0.2c1-0.5,1.6-1.5,1.6-2.7v-3.5
		c0-1.1-0.6-2.2-1.6-2.7s-2.2-0.4-3.1,0.2c-0.6,0.5-1.1,1-1.5,1.7c0,0-1.6,0.2-2.9,0.6c-1.4,0.5-2.6,1.1-3.5,1.8
		c-3,2.5-2.6,6.5-2.5,8.2c0.6,6.5,1,11.7,4.1,17.8c-0.3,1-0.2,2.1,0.3,3c4.1,7,7.8,8.9,9,9.5c0.3,0.2,0.7,0.3,1,0.4v1.4
		c0,6,3.2,11.6,8.4,14.5l79,45.6c5.2,3,11.6,3,16.8,0l79-45.6c5.2-3,8.4-8.6,8.4-14.5v-14.6c2.3-1.8,3.7-4.6,3.7-7.7
		C230.5,143.7,226.1,139.3,220.6,139.3z M220.6,153.5c-2.4,0-4.4-2-4.4-4.4s2-4.4,4.4-4.4s4.4,2,4.4,4.4
		C225,151.6,223,153.5,220.6,153.5z"/>
	<path class="st0" d="M214.4,79.3c0-1.6-0.8-3-2.2-3.8l-79-45.6c-1.3-0.8-3-0.8-4.4,0l-79,45.6c-1.4,0.8-2.2,2.2-2.2,3.8v23.2
		c0,3.5-2.9,6.4-6.5,6.2c-3.4-0.1-5.9-3.2-5.9-6.6V79.3c0-6,3.2-11.6,8.4-14.6l78.9-45.6c5.2-3,11.6-3,16.9,0l79,45.6
		c5.2,3,8.4,8.6,8.4,14.5v43.9c0,3.2-2.4,5.8-5.5,6.1c-0.2,0-0.4,0.1-0.6,0.1h-0.1l0,0l0,0h-16c-1.2,0-2.4-0.6-3-1.7l-10.8-18h-0.1
		l-12.3,18.2c-0.6,1-1.7,1.5-2.9,1.5h-18.1h-0.1l-7.6,30.9c-0.3,1.2-1,2.2-2.1,2.9c-0.4,0.2-0.6,0.3-0.9,0.4
		c-1.8,0.5-3.7-0.7-3.9-2.5l-11.2-81.7c0-0.1-0.1-0.1-0.1,0l-10.4,66c-0.2,1.6-1.5,2.8-3.1,2.9c-1.6,0.1-3.1-0.8-3.6-2.3l-6.7-16.5
		c0,0,0,0-0.1,0H100c-1,0-2-0.5-2.7-1.3l-5.4-6.6h-0.1l-5.1,6.5c-0.7,0.8-1.7,1.3-2.8,1.3H73.3c-2.1,0-3.7-1.8-3.4-4
		c0.3-1.7,1.9-2.9,3.6-2.9h8.9l0,0l6.7-8.6c0.6-0.8,1.6-1.3,2.7-1.3c1,0,2,0.5,2.7,1.3l7.1,8.7l0,0h8.6c1.5,0,2.8,1,3.3,2.4l2.8,8.4
		c0,0.1,0.1,0.1,0.1,0l11.8-79.1c0.3-1.7,1.8-2.9,3.4-2.9c1.7,0,3.1,1.3,3.4,3l12,90.7c0,0.1,0.1,0.1,0.1,0l4-19.9
		c0.4-1.5,1.8-2.6,3.3-2.6h19c0,0,0,0,0.1,0l14.3-21.2c0.7-1,1.8-1.5,2.9-1.5c1.2,0,2.2,0.7,2.9,1.7l12.6,21c0,0,0,0,0.1,0h7.8
		L214.4,79.3z"/>
</g>
</svg>
