<?xml version="1.0" encoding="utf-8"?>
<!-- Generator: Adobe Illustrator 25.3.1, SVG Export Plug-In . SVG Version: 6.00 Build 0)  -->
<svg version="1.1" id="Layer_1" xmlns="http://www.w3.org/2000/svg" xmlns:xlink="http://www.w3.org/1999/xlink" x="0px" y="0px"
	 viewBox="0 0 250 250" style="enable-background:new 0 0 250 250;" xml:space="preserve">
<style type="text/css">
	.st0{fill:#ED2C2B;}
	.st1{fill:#FFFFFF;stroke:#FFFFFF;stroke-width:3;stroke-miterlimit:10;}
	.st2{fill:#ED2C2B;stroke:#ED2C2B;stroke-width:3;stroke-miterlimit:10;}
</style>
<g>
	<g>
		<path class="st0" d="M224.1,136.1"/>
		<path class="st0" d="M129.6,80.6"/>
		<path class="st1" d="M225.7,144.7c-5.8,0-10.5,4.7-10.5,10.5c0,3.3,1.5,6.2,3.9,8.2h0v15.5c0,1.6-0.9,3.2-2.3,4L133,231.2
			c-1.4,0.8-3.2,0.8-4.6,0l-83.7-48.3c-1.4-0.8-2.3-2.4-2.3-4v-1.6c0.3-0.1,0.6-0.2,0.9-0.4c1.3-0.6,5.1-2.5,9.5-10
			c0.6-1,0.7-2.2,0.3-3.2c3.2-6.5,3.7-12,4.3-18.9c0.2-1.8,0.5-6.1-2.6-8.7c-0.9-0.8-2.2-1.4-3.7-1.9c0,0-1.1-0.3-3-0.6
			c-0.4-0.7-0.9-1.3-1.6-1.8c-1-0.7-2.2-0.8-3.3-0.3c-1.1,0.5-1.7,1.6-1.7,2.8v3.7c0,1.2,0.7,2.3,1.7,2.8c1.1,0.5,2.3,0.4,3.3-0.3
			c0.6-0.5,1.2-1,1.5-1.7c2.7,0.6,3.4,1.3,3.4,1.3c0.9,0.8,0.9,2.5,0.8,4.3c-0.6,6.5-1,11.3-3.7,16.8c-1,0.3-1.8,0.9-2.4,1.8
			c-2.1,3.6-4.2,6-6.3,7c-2.6,1.2-5.7,1.2-8.3,0c-2-1-4.1-3.3-6.2-7c-0.5-0.9-1.4-1.5-2.4-1.8c-2.7-5.5-3.1-10.3-3.7-16.9
			c-0.2-1.7-0.2-3.5,0.8-4.2c0.4-0.3,1.1-0.7,1.9-0.9l1.5-0.4c0.4,0.7,0.9,1.3,1.5,1.7c1,0.7,2.2,0.8,3.3,0.3
			c1.1-0.5,1.7-1.6,1.7-2.8v-3.7c0-1.2-0.7-2.3-1.7-2.8c-1.1-0.5-2.3-0.4-3.3,0.3c-0.7,0.5-1.2,1.1-1.6,1.8c0,0-1.7,0.2-3,0.6
			c-1.5,0.5-2.8,1.1-3.7,1.9c-3.1,2.7-2.8,6.9-2.6,8.7c0.6,6.9,1.1,12.4,4.3,18.9c-0.4,1.1-0.3,2.2,0.3,3.2c4.4,7.5,8.3,9.4,9.6,10
			c0.3,0.2,0.7,0.3,1,0.4v1.4c0,6.3,3.4,12.3,8.9,15.4l83.7,48.3c5.5,3.2,12.3,3.2,17.8,0l83.7-48.3c5.5-3.2,8.9-9.1,8.9-15.4v-15.5
			c2.4-1.9,3.9-4.9,3.9-8.2C236.2,149.4,231.5,144.7,225.7,144.7z M225.7,159.8c-2.6,0-4.6-2.1-4.6-4.6c0-2.6,2.1-4.6,4.6-4.6
			c2.6,0,4.6,2.1,4.6,4.6C230.3,157.8,228.2,159.8,225.7,159.8z"/>
		<path class="st2" d="M219.1,81.2c0-1.7-0.9-3.2-2.3-4.1L133,28.8c-1.4-0.8-3.2-0.8-4.6,0L44.7,77.1c-1.4,0.8-2.3,2.4-2.3,4.1v24.6
			c0,3.7-3.1,6.8-6.9,6.6c-3.6-0.2-6.3-3.4-6.3-7l0-24.1c0-6.4,3.4-12.3,8.9-15.5l83.7-48.3c5.5-3.2,12.3-3.2,17.9,0l83.7,48.3
			c5.5,3.2,8.9,9.1,8.9,15.4v46.6c0,3.4-2.5,6.1-5.8,6.5c-0.2,0-0.4,0.1-0.6,0.1c0,0-0.1,0-0.1,0l0,0c0,0,0,0,0,0h-17
			c-1.3,0-2.5-0.7-3.2-1.8l-11.4-19.1c0,0-0.1,0-0.1,0l-13,19.2c-0.7,1-1.8,1.6-3.1,1.6h-19.2c0,0-0.1,0-0.1,0l-8,32.7
			c-0.3,1.3-1.1,2.4-2.2,3.1c-0.4,0.2-0.7,0.4-0.9,0.4c-1.9,0.5-3.9-0.7-4.1-2.7l-11.9-86.6c0-0.1-0.1-0.1-0.1,0l-11,69.9
			c-0.2,1.7-1.6,2.9-3.3,3.1c-1.7,0.1-3.2-0.9-3.8-2.5l-7.1-17.4c0,0,0,0-0.1,0h-8.3c-1.1,0-2.2-0.5-2.9-1.4l-5.7-6.9
			c0,0-0.1,0-0.1,0l-5.4,6.9c-0.7,0.9-1.8,1.4-2.9,1.4H69.5c-2.2,0-3.9-1.9-3.6-4.2c0.3-1.8,2-3.1,3.8-3.1h9.4c0,0,0,0,0.1,0
			l7.2-9.1c0.7-0.9,1.7-1.4,2.8-1.4c1.1,0,2.2,0.5,2.9,1.3l7.5,9.2c0,0,0,0,0,0h9.2c1.6,0,3,1,3.5,2.5l3,8.9c0,0.1,0.1,0.1,0.1,0
			l12.5-83.8c0.3-1.8,1.9-3.1,3.6-3.1c1.8,0,3.3,1.3,3.6,3.1l12.7,96.2c0,0.1,0.1,0.1,0.1,0l4.3-21.1c0.4-1.6,1.9-2.8,3.5-2.8H176
			c0,0,0,0,0.1,0l15.2-22.5c0.7-1,1.9-1.6,3.1-1.6c1.2,0,2.4,0.7,3,1.8l13.3,22.3c0,0,0,0,0.1,0l8.3,0L219.1,81.2z"/>
	</g>
</g>
</svg>
