<?xml version="1.0" encoding="utf-8"?>
<!-- Generator: Adobe Illustrator 25.3.1, SVG Export Plug-In . SVG Version: 6.00 Build 0)  -->
<svg version="1.1" id="Layer_1" xmlns="http://www.w3.org/2000/svg" xmlns:xlink="http://www.w3.org/1999/xlink" x="0px" y="0px"
	 viewBox="0 0 408 137" style="enable-background:new 0 0 408 137;" xml:space="preserve">
<style type="text/css">
	.st0{fill:#ED2C2B;}
	.st1{fill:#FFFFFF;}
</style>
<g>
	<path class="st0" d="M326,94.1c0,0.4,0.1,0.8,0.3,1.2c0.2,0.4,0.5,0.7,0.8,1c0.3,0.3,0.7,0.5,1.2,0.6c0.5,0.2,1,0.2,1.6,0.2
		c1.4,0,2.4-0.2,3-0.7c0.6-0.5,1-1.1,1-2c0-0.5-0.1-0.9-0.3-1.3c-0.2-0.3-0.5-0.6-0.9-0.8c-0.4-0.2-0.9-0.4-1.4-0.6
		c-0.6-0.2-1.2-0.3-1.9-0.5c-0.4-0.1-0.8-0.2-1.2-0.3c-0.4-0.1-0.9-0.2-1.3-0.4c-0.4-0.2-0.9-0.3-1.3-0.6c-0.4-0.2-0.8-0.5-1.1-0.8
		c-0.3-0.3-0.6-0.7-0.8-1.2c-0.2-0.4-0.3-1-0.3-1.6c0-0.8,0.1-1.6,0.4-2.3c0.3-0.7,0.7-1.3,1.2-1.8c0.6-0.5,1.3-0.9,2.1-1.2
		c0.9-0.3,1.9-0.4,3.1-0.4c1,0,1.8,0.1,2.6,0.4c0.8,0.3,1.4,0.6,1.9,1.1c0.5,0.5,0.9,1.1,1.2,1.8c0.3,0.7,0.4,1.4,0.4,2.3h-3.2
		c0-0.4-0.1-0.7-0.2-1c-0.1-0.3-0.3-0.6-0.6-0.8c-0.3-0.2-0.6-0.4-1-0.6c-0.4-0.1-0.9-0.2-1.4-0.2c-0.7,0-1.2,0.1-1.7,0.2
		c-0.4,0.1-0.8,0.3-1,0.6s-0.4,0.5-0.5,0.8c-0.1,0.3-0.2,0.6-0.2,0.9c0,0.4,0.1,0.8,0.3,1c0.2,0.3,0.5,0.5,0.9,0.7
		c0.4,0.2,0.8,0.4,1.3,0.5c0.5,0.1,1.1,0.2,1.7,0.3c0.8,0.2,1.6,0.4,2.4,0.7c0.8,0.2,1.4,0.6,2,1c0.6,0.4,1,1,1.4,1.6
		c0.3,0.6,0.5,1.5,0.5,2.4c0,0.9-0.2,1.7-0.5,2.4c-0.4,0.7-0.8,1.3-1.5,1.8c-0.6,0.5-1.4,0.8-2.3,1.1c-0.9,0.2-1.9,0.4-3,0.4
		c-1.2,0-2.2-0.2-3.1-0.5c-0.9-0.4-1.6-0.8-2.2-1.4c-0.6-0.6-1-1.2-1.3-1.9c-0.3-0.7-0.4-1.4-0.4-2.1H326z"/>
	<path class="st0" d="M339.5,92.7c0-1,0.2-2,0.5-2.9c0.3-0.9,0.8-1.7,1.4-2.3c0.6-0.7,1.4-1.2,2.2-1.6c0.9-0.4,1.8-0.6,2.9-0.6
		c0.5,0,1,0.1,1.4,0.2c0.4,0.1,0.9,0.2,1.3,0.4c0.4,0.2,0.8,0.4,1.1,0.6c0.3,0.2,0.6,0.5,0.9,0.8l0.2-1.5h2.7v13.9h-2.7l-0.2-1.5
		c-0.3,0.3-0.6,0.5-0.9,0.8c-0.3,0.2-0.7,0.4-1.1,0.6c-0.4,0.2-0.8,0.3-1.3,0.4c-0.4,0.1-0.9,0.2-1.4,0.2c-1,0-2-0.2-2.9-0.6
		c-0.9-0.4-1.6-0.9-2.2-1.6c-0.6-0.7-1.1-1.4-1.4-2.3C339.7,94.6,339.5,93.7,339.5,92.7z M342.6,92.7c0,0.7,0.1,1.3,0.3,1.8
		c0.2,0.6,0.5,1,0.9,1.4c0.4,0.4,0.8,0.7,1.3,0.9c0.5,0.2,1.1,0.3,1.6,0.3c0.6,0,1.1-0.1,1.6-0.3c0.5-0.2,1-0.5,1.3-0.9
		c0.4-0.4,0.7-0.9,0.9-1.4c0.2-0.6,0.3-1.2,0.3-1.8c0-0.7-0.1-1.3-0.3-1.8c-0.2-0.6-0.5-1-0.9-1.4c-0.4-0.4-0.8-0.7-1.3-0.9
		c-0.5-0.2-1.1-0.3-1.6-0.3s-1.1,0.1-1.6,0.3c-0.5,0.2-1,0.5-1.3,0.9c-0.4,0.4-0.7,0.9-0.9,1.4C342.7,91.4,342.6,92,342.6,92.7z"/>
	<path class="st0" d="M371.5,99.6h-3.1v-7.4c0-0.7-0.1-1.4-0.2-1.9c-0.2-0.5-0.4-0.9-0.7-1.3c-0.3-0.3-0.6-0.6-1-0.7
		c-0.4-0.1-0.9-0.2-1.4-0.2c-0.5,0-1,0.1-1.5,0.3c-0.5,0.2-0.8,0.5-1.2,0.9c-0.3,0.4-0.6,0.8-0.8,1.4c-0.2,0.5-0.3,1.1-0.3,1.7v7.2
		h-3.1V85.7h2.5l0.2,1.4c0.3-0.3,0.6-0.5,0.9-0.7c0.3-0.2,0.7-0.4,1.1-0.6c0.4-0.2,0.8-0.3,1.2-0.4c0.4-0.1,0.9-0.1,1.3-0.1
		c1,0,1.9,0.2,2.7,0.5c0.7,0.3,1.4,0.7,1.9,1.3c0.5,0.6,0.9,1.3,1.1,2.1c0.2,0.9,0.4,1.8,0.4,2.9V99.6z"/>
	<path class="st0" d="M376.7,81.8l2.3,0v4h4.2v2.8h-4.2v5.7c0,0.6,0.1,1,0.2,1.4c0.1,0.4,0.3,0.7,0.5,0.9c0.2,0.2,0.5,0.4,0.7,0.4
		c0.3,0.1,0.6,0.1,0.9,0.1h2.2l0,2.7h-2.5c-0.7,0-1.4-0.1-2-0.2c-0.6-0.2-1.2-0.4-1.6-0.8c-0.5-0.4-0.8-1-1.1-1.7
		c-0.3-0.7-0.4-1.6-0.4-2.7v-5.7h-2.2V86l2.1-0.6L376.7,81.8z"/>
	<path class="st0" d="M386,92.7c0-1,0.2-2,0.5-2.9c0.4-0.9,0.9-1.7,1.5-2.3c0.6-0.7,1.4-1.2,2.3-1.6c0.9-0.4,1.9-0.6,2.9-0.6
		c1.1,0,2,0.2,2.9,0.6c0.9,0.4,1.7,0.9,2.3,1.6c0.6,0.7,1.1,1.4,1.5,2.3c0.4,0.9,0.5,1.9,0.5,2.9c0,0.2,0,0.4,0,0.5
		c0,0.1,0,0.3-0.1,0.4H389c0.1,0.6,0.3,1.1,0.6,1.5s0.6,0.8,1,1.2c0.4,0.3,0.8,0.6,1.3,0.7c0.5,0.2,0.9,0.3,1.4,0.3
		c0.8,0,1.4-0.2,2-0.5c0.6-0.4,1-0.8,1.3-1.4h3.4c-0.2,0.6-0.5,1.2-0.9,1.8c-0.4,0.6-0.9,1.1-1.5,1.5c-0.6,0.4-1.2,0.8-2,1
		c-0.7,0.3-1.5,0.4-2.4,0.4c-1,0-2-0.2-2.9-0.6c-0.9-0.4-1.6-0.9-2.3-1.6c-0.6-0.7-1.1-1.4-1.5-2.3C386.1,94.6,386,93.7,386,92.7z
		 M393.2,87.9c-0.5,0-1,0.1-1.5,0.3c-0.4,0.2-0.8,0.4-1.2,0.7c-0.4,0.3-0.7,0.7-0.9,1.1c-0.2,0.4-0.4,0.9-0.5,1.3h8.1
		c-0.1-0.5-0.3-0.9-0.5-1.3c-0.2-0.4-0.5-0.8-0.9-1.1c-0.3-0.3-0.7-0.5-1.2-0.7C394.2,88,393.7,87.9,393.2,87.9z M397,80.8l-2.4,3.2
		h-2.2l2.3-4.1L397,80.8z"/>
</g>
<g>
	<path class="st1" d="M155.1,99.4V88.4h1.8v9.5h4.6v1.6H155.1z"/>
	<path class="st1" d="M168.3,99.4l-0.3-1.2h-0.1c-0.4,0.5-0.8,0.9-1.2,1s-0.9,0.3-1.5,0.3c-0.8,0-1.4-0.2-1.9-0.7
		c-0.5-0.4-0.7-1.1-0.7-1.9c0-0.9,0.3-1.5,0.9-2c0.6-0.4,1.6-0.7,2.9-0.7l1.4,0v-0.4c0-0.5-0.1-0.9-0.4-1.2
		c-0.2-0.3-0.6-0.4-1.1-0.4c-0.4,0-0.8,0.1-1.2,0.2c-0.4,0.1-0.8,0.3-1.1,0.4l-0.6-1.3c0.4-0.2,0.9-0.4,1.5-0.5
		c0.5-0.1,1-0.2,1.5-0.2c1,0,1.8,0.2,2.4,0.7s0.8,1.2,0.8,2.2v5.7H168.3z M165.7,98.2c0.6,0,1.1-0.2,1.5-0.5
		c0.4-0.4,0.6-0.9,0.6-1.5v-0.7l-1.1,0c-0.8,0-1.4,0.2-1.8,0.4c-0.4,0.3-0.6,0.6-0.6,1.1c0,0.4,0.1,0.7,0.3,0.9
		C164.9,98.1,165.3,98.2,165.7,98.2z"/>
	<path class="st1" d="M181.4,97.1c0,0.8-0.3,1.4-0.9,1.9c-0.6,0.4-1.4,0.7-2.5,0.7c-1.1,0-2-0.2-2.6-0.5v-1.5c1,0.5,1.9,0.7,2.7,0.7
		c1.1,0,1.6-0.3,1.6-1c0-0.2-0.1-0.4-0.2-0.5c-0.1-0.1-0.3-0.3-0.6-0.4c-0.3-0.2-0.6-0.3-1.1-0.5c-0.9-0.4-1.6-0.7-1.9-1.1
		c-0.3-0.4-0.5-0.9-0.5-1.5c0-0.7,0.3-1.3,0.8-1.7c0.6-0.4,1.3-0.6,2.3-0.6c1,0,1.9,0.2,2.7,0.6l-0.6,1.3c-0.9-0.4-1.6-0.6-2.2-0.6
		c-0.9,0-1.4,0.3-1.4,0.8c0,0.3,0.1,0.5,0.4,0.7c0.2,0.2,0.8,0.4,1.6,0.8c0.7,0.3,1.2,0.5,1.5,0.7c0.3,0.2,0.5,0.5,0.7,0.8
		C181.3,96.3,181.4,96.7,181.4,97.1z"/>
	<path class="st1" d="M188.4,99.4l-0.3-1.2H188c-0.4,0.5-0.8,0.9-1.2,1c-0.4,0.2-0.9,0.3-1.5,0.3c-0.8,0-1.4-0.2-1.9-0.7
		c-0.5-0.4-0.7-1.1-0.7-1.9c0-0.9,0.3-1.5,0.9-2c0.6-0.4,1.6-0.7,2.9-0.7l1.4,0v-0.4c0-0.5-0.1-0.9-0.4-1.2
		c-0.2-0.3-0.6-0.4-1.1-0.4c-0.4,0-0.8,0.1-1.2,0.2c-0.4,0.1-0.8,0.3-1.1,0.4l-0.6-1.3c0.4-0.2,0.9-0.4,1.5-0.5
		c0.5-0.1,1-0.2,1.5-0.2c1,0,1.8,0.2,2.4,0.7s0.8,1.2,0.8,2.2v5.7H188.4z M185.8,98.2c0.6,0,1.1-0.2,1.5-0.5
		c0.4-0.4,0.6-0.9,0.6-1.5v-0.7l-1.1,0c-0.8,0-1.4,0.2-1.8,0.4c-0.4,0.3-0.6,0.6-0.6,1.1c0,0.4,0.1,0.7,0.3,0.9
		C185.1,98.1,185.4,98.2,185.8,98.2z"/>
	<path class="st1" d="M199.3,99.4h-1.7v-5.2c0-0.6-0.1-1.1-0.4-1.4c-0.3-0.3-0.7-0.5-1.2-0.5c-0.7,0-1.3,0.2-1.6,0.7
		c-0.3,0.4-0.5,1.2-0.5,2.2v4.2h-1.7v-8.4h1.4l0.2,1.1h0.1c0.2-0.4,0.6-0.7,1.1-0.9c0.5-0.2,1-0.3,1.5-0.3c2,0,2.9,1,2.9,3.1V99.4z"
		/>
	<path class="st1" d="M204.8,98.2c0.4,0,0.8-0.1,1.3-0.2v1.3c-0.2,0.1-0.4,0.2-0.7,0.2c-0.3,0.1-0.6,0.1-0.9,0.1
		c-1.6,0-2.5-0.9-2.5-2.7v-4.5h-1.1v-0.8L202,91l0.6-1.8h1.1v1.9h2.3v1.4h-2.3v4.5c0,0.4,0.1,0.7,0.3,1
		C204.1,98.1,204.4,98.2,204.8,98.2z"/>
	<path class="st1" d="M211.2,99.6c-1.3,0-2.3-0.4-3-1.1c-0.7-0.8-1.1-1.8-1.1-3.1c0-1.4,0.3-2.4,1-3.2c0.7-0.8,1.6-1.2,2.7-1.2
		c1.1,0,1.9,0.3,2.6,1c0.6,0.7,0.9,1.6,0.9,2.8v1H209c0,0.8,0.2,1.4,0.6,1.9s1,0.7,1.7,0.7c0.5,0,0.9,0,1.4-0.1
		c0.4-0.1,0.9-0.2,1.3-0.5V99c-0.4,0.2-0.9,0.4-1.3,0.4C212.3,99.6,211.8,99.6,211.2,99.6z M210.9,92.3c-0.6,0-1,0.2-1.3,0.5
		c-0.3,0.4-0.5,0.9-0.6,1.6h3.7c0-0.7-0.2-1.2-0.5-1.6S211.5,92.3,210.9,92.3z M209.8,90v-0.2c0.3-0.4,0.6-0.7,0.9-1.2
		c0.3-0.4,0.5-0.8,0.7-1.1h2v0.2c-0.3,0.3-0.6,0.7-1.2,1.2c-0.5,0.5-0.9,0.9-1.3,1.1H209.8z"/>
	<path class="st1" d="M224.5,99.6c-1,0-1.8-0.4-2.4-1.1H222c0.1,0.7,0.1,1.1,0.1,1.3v3.4h-1.7V91.1h1.4c0,0.2,0.1,0.5,0.2,1.1h0.1
		c0.5-0.8,1.4-1.3,2.4-1.3c1,0,1.8,0.4,2.4,1.1c0.6,0.8,0.9,1.8,0.9,3.2s-0.3,2.4-0.9,3.2C226.3,99.2,225.5,99.6,224.5,99.6z
		 M224.1,92.4c-0.7,0-1.2,0.2-1.5,0.6c-0.3,0.4-0.5,1.1-0.5,2v0.3c0,1,0.2,1.8,0.5,2.2c0.3,0.5,0.8,0.7,1.5,0.7
		c0.6,0,1.1-0.3,1.4-0.8c0.3-0.5,0.5-1.2,0.5-2.2c0-0.9-0.2-1.7-0.5-2.1C225.2,92.6,224.7,92.4,224.1,92.4z"/>
	<path class="st1" d="M237.1,95.2c0,1.4-0.3,2.4-1,3.2c-0.7,0.8-1.6,1.2-2.9,1.2c-0.8,0-1.4-0.2-2-0.5c-0.6-0.4-1-0.9-1.4-1.5
		c-0.3-0.7-0.5-1.4-0.5-2.3c0-1.4,0.3-2.4,1-3.2c0.7-0.8,1.6-1.1,2.9-1.1c1.2,0,2.1,0.4,2.8,1.2C236.7,92.9,237.1,93.9,237.1,95.2z
		 M231.1,95.2c0,1.9,0.7,2.9,2.1,2.9c1.4,0,2.1-1,2.1-2.9c0-1.9-0.7-2.9-2.1-2.9c-0.7,0-1.3,0.2-1.6,0.7
		C231.3,93.6,231.1,94.3,231.1,95.2z"/>
	<path class="st1" d="M244.8,99.4l-0.2-1.1h-0.1c-0.2,0.4-0.6,0.7-1,0.9c-0.4,0.2-1,0.3-1.5,0.3c-1,0-1.7-0.3-2.2-0.8
		c-0.5-0.5-0.7-1.3-0.7-2.3v-5.5h1.8v5.2c0,0.6,0.1,1.1,0.4,1.4c0.3,0.3,0.7,0.5,1.2,0.5c0.7,0,1.3-0.2,1.6-0.7
		c0.3-0.4,0.5-1.2,0.5-2.2v-4.2h1.7v8.4H244.8z"/>
	<path class="st1" d="M252.8,90.9c0.4,0,0.6,0,0.9,0.1l-0.2,1.7c-0.2-0.1-0.5-0.1-0.8-0.1c-0.7,0-1.3,0.2-1.7,0.7
		c-0.4,0.5-0.6,1.1-0.6,1.8v4.4h-1.7v-8.4h1.4l0.2,1.5h0.1c0.3-0.5,0.6-0.9,1.1-1.2C251.9,91.1,252.3,90.9,252.8,90.9z"/>
	<path class="st1" d="M262.2,98.2c0.4,0,0.8-0.1,1.3-0.2v1.3c-0.2,0.1-0.4,0.2-0.7,0.2c-0.3,0.1-0.6,0.1-0.9,0.1
		c-1.6,0-2.5-0.9-2.5-2.7v-4.5h-1.1v-0.8l1.2-0.7l0.6-1.8h1.1v1.9h2.3v1.4h-2.3v4.5c0,0.4,0.1,0.7,0.3,1
		C261.6,98.1,261.9,98.2,262.2,98.2z"/>
	<path class="st1" d="M272.4,95.2c0,1.4-0.3,2.4-1,3.2c-0.7,0.8-1.6,1.2-2.9,1.2c-0.8,0-1.4-0.2-2-0.5c-0.6-0.4-1-0.9-1.4-1.5
		c-0.3-0.7-0.5-1.4-0.5-2.3c0-1.4,0.3-2.4,1-3.2c0.7-0.8,1.6-1.1,2.9-1.1c1.2,0,2.1,0.4,2.8,1.2C272,92.9,272.4,93.9,272.4,95.2z
		 M266.4,95.2c0,1.9,0.7,2.9,2.1,2.9c1.4,0,2.1-1,2.1-2.9c0-1.9-0.7-2.9-2.1-2.9c-0.7,0-1.3,0.2-1.6,0.7
		C266.6,93.6,266.4,94.3,266.4,95.2z"/>
	<path class="st1" d="M280.2,99.4l-0.2-1.1h-0.1c-0.2,0.4-0.6,0.7-1,0.9c-0.4,0.2-1,0.3-1.5,0.3c-1,0-1.7-0.3-2.2-0.8
		c-0.5-0.5-0.7-1.3-0.7-2.3v-5.5h1.8v5.2c0,0.6,0.1,1.1,0.4,1.4c0.3,0.3,0.7,0.5,1.2,0.5c0.7,0,1.3-0.2,1.6-0.7
		c0.3-0.4,0.5-1.2,0.5-2.2v-4.2h1.7v8.4H280.2z"/>
	<path class="st1" d="M289.5,97.1c0,0.8-0.3,1.4-0.9,1.9c-0.6,0.4-1.4,0.7-2.5,0.7c-1.1,0-2-0.2-2.6-0.5v-1.5c1,0.5,1.9,0.7,2.7,0.7
		c1.1,0,1.6-0.3,1.6-1c0-0.2-0.1-0.4-0.2-0.5c-0.1-0.1-0.3-0.3-0.6-0.4c-0.3-0.2-0.6-0.3-1.1-0.5c-0.9-0.4-1.6-0.7-1.9-1.1
		c-0.3-0.4-0.5-0.9-0.5-1.5c0-0.7,0.3-1.3,0.8-1.7c0.6-0.4,1.3-0.6,2.3-0.6c1,0,1.9,0.2,2.7,0.6l-0.6,1.3c-0.9-0.4-1.6-0.6-2.2-0.6
		c-0.9,0-1.4,0.3-1.4,0.8c0,0.3,0.1,0.5,0.4,0.7c0.2,0.2,0.8,0.4,1.6,0.8c0.7,0.3,1.2,0.5,1.5,0.7c0.3,0.2,0.5,0.5,0.7,0.8
		C289.4,96.3,289.5,96.7,289.5,97.1z"/>
</g>
<g>
	<path class="st0" d="M123.1,72.9"/>
	<path class="st0" d="M71.2,42.4"/>
	<path class="st1" d="M123.9,77.6c-3.2,0-5.8,2.6-5.8,5.8c0,1.8,0.8,3.4,2.1,4.5h0v8.5c0,0.9-0.5,1.7-1.3,2.2l-46,26.6
		c-0.8,0.5-1.8,0.5-2.5,0l-46-26.6c-0.8-0.5-1.3-1.3-1.3-2.2v-0.9c0.2-0.1,0.3-0.1,0.5-0.2c0.7-0.3,2.8-1.4,5.2-5.5
		c0.3-0.5,0.4-1.2,0.2-1.8c1.8-3.6,2-6.6,2.4-10.4c0.1-1,0.3-3.3-1.4-4.8c-0.5-0.4-1.2-0.8-2-1.1c0,0-0.6-0.2-1.7-0.4
		c-0.2-0.4-0.5-0.7-0.9-1c-0.5-0.4-1.2-0.4-1.8-0.1c-0.6,0.3-1,0.9-1,1.6v2c0,0.7,0.4,1.3,1,1.6c0.6,0.3,1.3,0.2,1.8-0.1
		c0.3-0.3,0.6-0.6,0.8-0.9c1.5,0.3,1.9,0.7,1.9,0.7c0.5,0.4,0.5,1.4,0.4,2.3c-0.3,3.6-0.5,6.2-2,9.2c-0.5,0.1-1,0.5-1.3,1
		c-1.2,2-2.3,3.3-3.5,3.8c-1.4,0.7-3.2,0.7-4.6,0c-1.1-0.5-2.3-1.8-3.4-3.8c-0.3-0.5-0.8-0.8-1.3-1c-1.5-3-1.7-5.7-2-9.3
		c-0.1-1-0.1-1.9,0.4-2.3c0.2-0.2,0.6-0.4,1-0.5l0.8-0.2c0.2,0.4,0.5,0.7,0.8,0.9c0.5,0.4,1.2,0.4,1.8,0.1c0.6-0.3,1-0.9,1-1.6v-2
		c0-0.7-0.4-1.3-1-1.6c-0.6-0.3-1.3-0.2-1.8,0.1c-0.4,0.3-0.7,0.6-0.9,1c0,0-0.9,0.1-1.7,0.4c-0.8,0.3-1.5,0.6-2,1.1
		c-1.7,1.5-1.5,3.8-1.4,4.8C7.9,81.5,8.2,84.5,10,88c-0.2,0.6-0.1,1.2,0.2,1.8c2.4,4.1,4.6,5.2,5.3,5.5c0.2,0.1,0.4,0.2,0.6,0.2v0.8
		c0,3.5,1.9,6.7,4.9,8.5l46,26.6c3,1.7,6.8,1.7,9.8,0l46-26.6c3-1.7,4.9-5,4.9-8.5v-8.5c1.3-1.1,2.2-2.7,2.2-4.5
		C129.7,80.2,127.1,77.6,123.9,77.6z M123.9,85.9c-1.4,0-2.5-1.1-2.5-2.5c0-1.4,1.1-2.5,2.5-2.5c1.4,0,2.5,1.1,2.5,2.5
		C126.5,84.8,125.3,85.9,123.9,85.9z"/>
	<path class="st0" d="M120.3,42.7c0-0.9-0.5-1.8-1.3-2.2L73,13.9c-0.8-0.5-1.8-0.5-2.5,0l-46,26.6c-0.8,0.5-1.3,1.3-1.3,2.2v13.5
		c0,2.1-1.7,3.7-3.8,3.6c-2-0.1-3.5-1.9-3.5-3.9l0-13.3c0-3.5,1.9-6.7,4.9-8.5l46-26.5c3-1.8,6.8-1.8,9.8,0l46,26.5
		c3,1.7,4.9,5,4.9,8.5v25.6c0,1.9-1.4,3.4-3.2,3.6c-0.1,0-0.2,0-0.3,0c0,0,0,0-0.1,0l0,0c0,0,0,0,0,0h-9.3c-0.7,0-1.4-0.4-1.7-1
		l-6.3-10.5c0,0,0,0-0.1,0L99.4,71c-0.4,0.6-1,0.9-1.7,0.9H87.2c0,0,0,0,0,0l-4.4,18c-0.2,0.7-0.6,1.3-1.2,1.7
		c-0.2,0.1-0.4,0.2-0.5,0.2c-1.1,0.3-2.1-0.4-2.3-1.5l-6.5-47.6c0,0-0.1,0-0.1,0l-6,38.4c-0.1,0.9-0.9,1.6-1.8,1.7
		c-0.9,0.1-1.8-0.5-2.1-1.4l-3.9-9.6c0,0,0,0,0,0h-4.5c-0.6,0-1.2-0.3-1.6-0.7L49,67.3c0,0,0,0-0.1,0l-3,3.8c-0.4,0.5-1,0.8-1.6,0.8
		h-6.3c-1.2,0-2.2-1.1-2-2.3c0.1-1,1.1-1.7,2.1-1.7h5.2c0,0,0,0,0,0l3.9-5c0.4-0.5,0.9-0.8,1.6-0.8c0.6,0,1.2,0.3,1.6,0.7l4.1,5.1
		c0,0,0,0,0,0h5c0.9,0,1.7,0.6,1.9,1.4l1.6,4.9c0,0,0.1,0,0.1,0l6.9-46.1c0.1-1,1-1.7,2-1.7c1,0,1.8,0.7,2,1.7l7,52.8
		c0,0,0.1,0,0.1,0l2.4-11.6c0.2-0.9,1-1.5,1.9-1.5h11.1c0,0,0,0,0,0l8.3-12.3c0.4-0.6,1-0.9,1.7-0.9c0.7,0,1.3,0.4,1.7,1l7.3,12.2
		c0,0,0,0,0,0l4.5,0L120.3,42.7z"/>
</g>
<path class="st1" d="M191.5,60.2v-2.8c0-1.6,1.3-2.8,3-2.8h12.4v2.8c0,1.6-1.3,2.8-3,2.8H191.5z"/>
<path class="st1" d="M257.4,72.9h-4V29.7c0-1.6,1.3-2.8,3-2.8h4v43.2C260.4,71.6,259,72.9,257.4,72.9z"/>
<path class="st1" d="M293.7,72.9c-1.3,0-2.5-0.8-2.9-2l-0.8-2.3h-0.2c-1.6,1.9-3.2,3.2-4.8,3.9c-1.6,0.7-3.7,1-6.2,1
	c-3.3,0-5.8-0.8-7.6-2.5c-1.8-1.7-2.7-4-2.7-7c0-3.2,1.3-5.7,3.8-7.3c2.5-1.6,6.4-2.5,11.6-2.7l5.7-0.2v-1.7c0-2-0.5-3.5-1.5-4.5
	c-1-1-2.5-1.5-4.6-1.5c-1.7,0-3.3,0.2-4.9,0.7c-1.6,0.5-3.1,1-4.5,1.7l-1-2.1c-0.7-1.5,0.1-3.3,1.7-3.8c0.9-0.3,1.9-0.6,2.9-0.8
	c2.1-0.5,4.2-0.7,6-0.7c4.2,0,7.4,0.9,9.5,2.6c2.1,1.7,3.2,4.5,3.2,8.2v21.1H293.7z M281,68.4c2.6,0,4.6-0.7,6.2-2
	c1.5-1.3,2.3-3.2,2.3-5.7V58l-4.3,0.2c-3.3,0.1-5.7,0.6-7.2,1.6c-1.5,0.9-2.3,2.4-2.3,4.3c0,1.4,0.4,2.5,1.3,3.2
	C278,68,279.3,68.4,281,68.4z"/>
<path class="st1" d="M303.4,99.8c-0.9,0-1.8,0-2.6-0.1c-1.5-0.2-2.7-1.4-2.7-2.8v-3c1.4,0.3,2.7,0.5,4.2,0.5c3,0,4.5-1.6,4.5-4.8
	V44.5c0-1.6,1.3-2.8,3-2.8h4V90c0,3.2-0.9,5.7-2.7,7.3C309.3,99,306.7,99.8,303.4,99.8z M306.3,33.3c0-1.2,0.3-2.1,1-2.7
	c0.7-0.6,1.7-1,2.9-1c1.2,0,2.2,0.3,2.9,1c0.7,0.6,1,1.6,1,2.7c0,1.1-0.3,2-1,2.7c-0.7,0.7-1.7,1-2.9,1c-1.3,0-2.3-0.3-2.9-1
	C306.7,35.4,306.3,34.5,306.3,33.3z"/>
<path class="st1" d="M326.6,69.2c-4.2-4.3-4.3-9.3-4.4-11.7c0-1.4-0.2-7.5,4-12c2.7-2.9,6.4-4.4,11.1-4.4c4.4,0,7.8,1.3,10.4,3.8
	c2.5,2.5,3.8,6,3.8,10.3v3.6h-22.1c0.1,3,1,5.4,2.6,7c1.6,1.6,3.9,2.4,6.9,2.4c2,0,3.8-0.2,5.5-0.5c1.7-0.3,3.5-0.9,5.4-1.7v2.9
	c0,0.8-0.1,1.2-0.7,1.8c-3.4,3.4-9.2,3.2-10.5,3.1C336.5,73.7,330.9,73.6,326.6,69.2z M337.4,46.1c-2.2,0-4,0.7-5.4,2
	c-1.3,1.3-2.2,3.3-2.4,5.9h15c0-2.6-0.7-4.5-2-5.9C341.4,46.8,339.6,46.1,337.4,46.1z"/>
<path class="st1" d="M220,69.2c-4.2-4.3-4.3-9.3-4.4-11.7c0-1.4-0.2-7.5,4-12c2.7-2.9,6.4-4.4,11.1-4.4c4.4,0,7.8,1.3,10.4,3.8
	c2.5,2.5,3.8,6,3.8,10.3v3.6h-22.1c0.1,3,1,5.4,2.6,7c1.6,1.6,3.9,2.4,6.9,2.4c2,0,3.8-0.2,5.5-0.5c1.7-0.3,3.5-0.9,5.4-1.7v2.9
	c0,0.8-0.1,1.2-0.7,1.8c-3.4,3.4-9.2,3.2-10.5,3.1C229.9,73.7,224.3,73.6,220,69.2z M230.8,46.1c-2.2,0-4,0.7-5.4,2
	c-1.3,1.3-2.2,3.3-2.4,5.9h15c0-2.6-0.7-4.5-2-5.9C234.8,46.8,233.1,46.1,230.8,46.1z"/>
<path class="st1" d="M157.8,69.2c-4.2-4.3-4.3-9.3-4.4-11.7c0-1.4-0.2-7.5,4-12c2.7-2.9,6.4-4.4,11.1-4.4c4.4,0,7.8,1.3,10.4,3.8
	c2.5,2.5,3.8,6,3.8,10.3v3.6h-22.1c0.1,3,1,5.4,2.6,7c1.6,1.6,3.9,2.4,6.9,2.4c2,0,3.8-0.2,5.5-0.5c1.7-0.3,3.5-0.9,5.4-1.7v2.9
	c0,0.8-0.1,1.2-0.7,1.8c-3.4,3.4-9.2,3.2-10.5,3.1C167.6,73.7,162,73.6,157.8,69.2z M168.6,46.1c-2.2,0-4,0.7-5.4,2
	c-1.3,1.3-2.2,3.3-2.4,5.9h15c0-2.6-0.7-4.5-2-5.9C172.5,46.8,170.8,46.1,168.6,46.1z"/>
</svg>
