<?xml version="1.0" encoding="utf-8"?>
<!-- Generator: Adobe Illustrator 25.3.1, SVG Export Plug-In . SVG Version: 6.00 Build 0)  -->
<svg version="1.1" id="Layer_1" xmlns="http://www.w3.org/2000/svg" xmlns:xlink="http://www.w3.org/1999/xlink" x="0px" y="0px"
	 viewBox="0 0 391.3 250" style="enable-background:new 0 0 391.3 250;" xml:space="preserve">
<style type="text/css">
	.st0{fill:#ED2C2B;}
	.st1{fill:#FFFFFF;}
</style>
<g>
	<path class="st0" d="M273.6,168.7c0,0.7,0.1,1.3,0.4,1.9c0.3,0.6,0.7,1.1,1.3,1.5c0.5,0.4,1.2,0.8,1.9,1c0.8,0.2,1.6,0.4,2.5,0.4
		c2.2,0,3.8-0.4,4.8-1.1c1-0.7,1.5-1.8,1.5-3.1c0-0.8-0.2-1.5-0.5-2s-0.8-1-1.5-1.3c-0.6-0.4-1.4-0.7-2.3-0.9s-1.9-0.5-2.9-0.7
		c-0.6-0.1-1.2-0.3-1.9-0.4c-0.7-0.1-1.4-0.3-2.1-0.6c-0.7-0.2-1.4-0.5-2-0.9c-0.6-0.3-1.2-0.8-1.7-1.3s-0.9-1.1-1.2-1.8
		c-0.3-0.7-0.5-1.5-0.5-2.5c0-1.3,0.2-2.5,0.6-3.7c0.4-1.1,1-2.1,1.9-2.9c0.9-0.8,2-1.4,3.4-1.9c1.4-0.4,3-0.7,5-0.7
		c1.5,0,2.9,0.2,4.1,0.6c1.2,0.4,2.2,1,3.1,1.8c0.8,0.8,1.5,1.7,1.9,2.8s0.7,2.3,0.7,3.6h-5c0-0.6-0.1-1.1-0.3-1.6
		c-0.2-0.5-0.5-0.9-1-1.3c-0.4-0.4-1-0.7-1.6-0.9s-1.4-0.3-2.3-0.3c-1.1,0-1.9,0.1-2.6,0.3s-1.2,0.5-1.7,0.9s-0.7,0.8-0.9,1.2
		c-0.2,0.5-0.2,0.9-0.2,1.4c0,0.6,0.2,1.2,0.5,1.6c0.3,0.4,0.8,0.8,1.4,1.1s1.3,0.6,2.1,0.8c0.8,0.2,1.7,0.4,2.7,0.5
		c1.3,0.3,2.6,0.6,3.8,1c1.2,0.4,2.2,0.9,3.2,1.6c0.9,0.7,1.6,1.5,2.2,2.5c0.5,1,0.8,2.3,0.8,3.9c0,1.4-0.3,2.7-0.8,3.8
		c-0.6,1.1-1.3,2-2.3,2.8c-1,0.7-2.2,1.3-3.6,1.7s-3,0.6-4.7,0.6c-1.9,0-3.5-0.3-4.9-0.8c-1.4-0.6-2.5-1.3-3.4-2.2s-1.6-1.9-2-3
		s-0.7-2.2-0.7-3.4L273.6,168.7L273.6,168.7z"/>
	<path class="st0" d="M295,166.5c0-1.6,0.3-3.1,0.8-4.5s1.3-2.7,2.3-3.7c1-1.1,2.1-1.9,3.5-2.5s2.9-0.9,4.5-0.9
		c0.8,0,1.5,0.1,2.2,0.2c0.7,0.2,1.4,0.4,2,0.7s1.2,0.6,1.7,1s1,0.8,1.4,1.2l0.3-2.4h4.2v22h-4.2l-0.3-2.4c-0.4,0.4-0.9,0.8-1.4,1.2
		s-1.1,0.7-1.7,1s-1.3,0.5-2,0.7s-1.4,0.2-2.2,0.2c-1.7,0-3.2-0.3-4.5-0.9c-1.4-0.6-2.5-1.4-3.5-2.5s-1.7-2.3-2.3-3.7
		C295.3,169.6,295,168.1,295,166.5z M299.9,166.4c0,1.1,0.2,2,0.5,2.9s0.8,1.6,1.4,2.3c0.6,0.6,1.3,1.1,2.1,1.5
		c0.8,0.3,1.7,0.5,2.6,0.5s1.8-0.2,2.6-0.5c0.8-0.3,1.5-0.8,2.1-1.5c0.6-0.6,1.1-1.4,1.4-2.3c0.3-0.9,0.5-1.8,0.5-2.9
		c0-1-0.2-2-0.5-2.9s-0.8-1.6-1.4-2.3c-0.6-0.6-1.3-1.1-2.1-1.5c-0.8-0.4-1.7-0.5-2.6-0.5s-1.8,0.2-2.6,0.5
		c-0.8,0.3-1.5,0.8-2.1,1.5c-0.6,0.6-1.1,1.4-1.4,2.3C300.1,164.4,299.9,165.4,299.9,166.4z"/>
	<path class="st0" d="M345.5,177.4h-4.9v-11.7c0-1.2-0.1-2.2-0.4-3c-0.2-0.8-0.6-1.5-1-2s-1-0.9-1.6-1.1c-0.6-0.2-1.4-0.3-2.1-0.3
		c-0.9,0-1.7,0.2-2.4,0.5c-0.7,0.3-1.3,0.8-1.9,1.4c-0.5,0.6-0.9,1.3-1.2,2.2c-0.3,0.8-0.4,1.7-0.4,2.7v11.3h-4.9v-22h4l0.4,2.2
		c0.4-0.4,0.9-0.8,1.5-1.1c0.5-0.3,1.1-0.7,1.7-0.9c0.6-0.3,1.3-0.5,1.9-0.6c0.7-0.1,1.4-0.2,2-0.2c1.6,0,3,0.2,4.2,0.7
		s2.2,1.2,2.9,2.1c0.8,0.9,1.3,2.1,1.7,3.4c0.4,1.3,0.6,2.9,0.6,4.6v11.8H345.5z"/>
	<path class="st0" d="M353.7,149.2h3.6v6.3h6.6v4.5h-6.6v9c0,0.9,0.1,1.6,0.3,2.2s0.5,1,0.8,1.4c0.3,0.3,0.7,0.6,1.2,0.7
		c0.4,0.1,0.9,0.2,1.4,0.2h3.5v4.3h-4c-1.1,0-2.2-0.1-3.1-0.4c-1-0.2-1.8-0.7-2.6-1.3c-0.7-0.6-1.3-1.5-1.7-2.7
		c-0.4-1.1-0.6-2.6-0.6-4.3v-9H349v-4l3.3-1L353.7,149.2z"/>
	<path class="st0" d="M368.4,166.5c0-1.6,0.3-3.1,0.8-4.5c0.6-1.4,1.4-2.7,2.4-3.7c1-1.1,2.2-1.9,3.6-2.5s2.9-0.9,4.6-0.9
		s3.2,0.3,4.6,0.9c1.4,0.6,2.6,1.4,3.6,2.5s1.8,2.3,2.4,3.7s0.9,2.9,0.9,4.5c0,0.4,0,0.6,0,0.9c0,0.2-0.1,0.4-0.1,0.6h-18
		c0.2,0.9,0.5,1.7,0.9,2.4s0.9,1.3,1.5,1.8s1.3,0.9,2,1.2s1.5,0.4,2.2,0.4c1.2,0,2.3-0.3,3.2-0.9c0.9-0.6,1.6-1.3,2.1-2.2h5.3
		c-0.3,1-0.8,1.9-1.5,2.8c-0.6,0.9-1.4,1.7-2.3,2.4s-1.9,1.2-3.1,1.6c-1.1,0.4-2.4,0.6-3.8,0.6c-1.7,0-3.2-0.3-4.6-0.9
		c-1.4-0.6-2.6-1.4-3.6-2.5s-1.8-2.3-2.4-3.7C368.7,169.6,368.4,168.1,368.4,166.5z M379.9,159c-0.8,0-1.6,0.1-2.3,0.4
		c-0.7,0.3-1.3,0.6-1.9,1.1s-1,1-1.4,1.7c-0.4,0.6-0.7,1.4-0.9,2.1h12.8c-0.2-0.8-0.5-1.5-0.8-2.1c-0.4-0.6-0.8-1.2-1.4-1.7
		c-0.5-0.5-1.1-0.8-1.8-1.1C381.4,159.1,380.7,159,379.9,159z M385.8,147.8l-3.8,5.1h-3.5l3.7-6.5L385.8,147.8z"/>
</g>
<g>
	<path class="st1" d="M3.7,177.2v-17.5h2.8v15.1h7.2v2.5h-10V177.2z"/>
	<path class="st1" d="M24.5,177.2l-0.5-1.8h-0.1c-0.6,0.8-1.3,1.4-1.9,1.6c-0.6,0.3-1.4,0.4-2.4,0.4c-1.3,0-2.3-0.4-3-1.1
		c-0.7-0.7-1.1-1.7-1.1-3c0-1.4,0.5-2.4,1.5-3.1c1-0.7,2.5-1.1,4.5-1.1l2.2-0.1v-0.7c0-0.8-0.2-1.5-0.6-1.9c-0.4-0.4-1-0.6-1.8-0.6
		c-0.7,0-1.3,0.1-1.9,0.3s-1.2,0.4-1.8,0.7l-0.9-2c0.7-0.4,1.5-0.7,2.3-0.9s1.6-0.3,2.4-0.3c1.6,0,2.9,0.4,3.7,1.1
		c0.8,0.7,1.3,1.9,1.3,3.5v8.9h-1.9V177.2z M20.4,175.2c1,0,1.8-0.3,2.4-0.9c0.6-0.6,0.9-1.4,0.9-2.4v-1.2l-1.7,0.1
		c-1.3,0-2.2,0.3-2.8,0.7s-0.9,1-0.9,1.8c0,0.6,0.2,1,0.5,1.4C19.2,175.1,19.7,175.2,20.4,175.2z"/>
	<path class="st1" d="M45.2,173.4c0,1.3-0.5,2.3-1.4,3s-2.2,1-4,1c-1.7,0-3.1-0.3-4.2-0.8v-2.4c1.5,0.7,2.9,1.1,4.2,1.1
		c1.7,0,2.5-0.5,2.5-1.6c0-0.3-0.1-0.6-0.3-0.8c-0.2-0.2-0.5-0.5-0.9-0.7s-1-0.5-1.8-0.8c-1.5-0.6-2.5-1.2-3-1.8s-0.8-1.4-0.8-2.3
		c0-1.1,0.4-2,1.3-2.6s2.1-0.9,3.6-0.9s3,0.3,4.3,0.9l-0.9,2.1c-1.4-0.6-2.6-0.9-3.5-0.9c-1.5,0-2.2,0.4-2.2,1.3
		c0,0.4,0.2,0.8,0.6,1.1s1.2,0.7,2.5,1.2c1.1,0.4,1.8,0.8,2.3,1.2s0.8,0.8,1.1,1.2C45.1,172.2,45.2,172.7,45.2,173.4z"/>
	<path class="st1" d="M56.2,177.2l-0.5-1.8h-0.1c-0.6,0.8-1.3,1.4-1.9,1.6c-0.6,0.3-1.4,0.4-2.4,0.4c-1.3,0-2.3-0.4-3-1.1
		c-0.7-0.7-1.1-1.7-1.1-3c0-1.4,0.5-2.4,1.5-3.1c1-0.7,2.5-1.1,4.5-1.1l2.2-0.1v-0.7c0-0.8-0.2-1.5-0.6-1.9s-1-0.6-1.8-0.6
		c-0.7,0-1.3,0.1-1.9,0.3s-1.2,0.4-1.8,0.7l-0.9-2c0.7-0.4,1.5-0.7,2.3-0.9s1.6-0.3,2.4-0.3c1.6,0,2.9,0.4,3.7,1.1
		c0.8,0.7,1.3,1.9,1.3,3.5v8.9h-1.9V177.2z M52.2,175.2c1,0,1.8-0.3,2.4-0.9c0.6-0.6,0.9-1.4,0.9-2.4v-1.2l-1.7,0.1
		c-1.3,0-2.2,0.3-2.8,0.7c-0.6,0.4-0.9,1-0.9,1.8c0,0.6,0.2,1,0.5,1.4C51,175.1,51.5,175.2,52.2,175.2z"/>
	<path class="st1" d="M73.4,177.2h-2.8V169c0-1-0.2-1.8-0.6-2.3s-1-0.8-1.9-0.8c-1.2,0-2,0.4-2.6,1.1c-0.5,0.7-0.8,1.9-0.8,3.5v6.6
		H62v-13.3h2.2l0.4,1.7h0.1c0.4-0.6,0.9-1.1,1.7-1.5c0.7-0.3,1.5-0.5,2.4-0.5c3.1,0,4.7,1.6,4.7,4.9L73.4,177.2L73.4,177.2z"/>
	<path class="st1" d="M82.1,175.1c0.7,0,1.3-0.1,2-0.3v2.1c-0.3,0.1-0.7,0.2-1.2,0.3s-1,0.1-1.5,0.1c-2.6,0-3.9-1.4-3.9-4.2V166
		h-1.8v-1.2l1.9-1l0.9-2.8h1.7v2.9h3.7v2.1h-3.7v7.1c0,0.7,0.2,1.2,0.5,1.5C81.1,175,81.5,175.1,82.1,175.1z"/>
	<path class="st1" d="M92.3,177.4c-2,0-3.6-0.6-4.7-1.8s-1.7-2.9-1.7-5c0-2.2,0.5-3.9,1.6-5.1c1.1-1.2,2.5-1.9,4.3-1.9
		c1.7,0,3.1,0.5,4,1.6c1,1.1,1.5,2.5,1.5,4.4v1.5h-8.6c0,1.3,0.4,2.3,1,3s1.5,1,2.7,1c0.8,0,1.5-0.1,2.1-0.2
		c0.7-0.1,1.4-0.4,2.1-0.7v2.3c-0.7,0.3-1.3,0.6-2,0.7C94,177.3,93.2,177.4,92.3,177.4z M91.8,165.8c-0.9,0-1.6,0.3-2.1,0.9
		c-0.5,0.6-0.8,1.4-0.9,2.5h5.9c0-1.1-0.3-1.9-0.8-2.5C93.4,166.1,92.7,165.8,91.8,165.8z M90.1,162.3V162c0.4-0.6,0.9-1.2,1.4-1.9
		s0.8-1.3,1.1-1.8h3.2v0.3c-0.4,0.5-1,1.1-1.8,1.9c-0.8,0.8-1.5,1.4-2,1.8H90.1z"/>
	<path class="st1" d="M113.3,177.4c-1.6,0-2.9-0.6-3.8-1.8h-0.2c0.1,1.1,0.2,1.8,0.2,2v5.4h-2.7v-19.2h2.2c0.1,0.2,0.2,0.8,0.4,1.8
		h0.1c0.9-1.3,2.1-2,3.9-2c1.6,0,2.9,0.6,3.8,1.8c0.9,1.2,1.4,2.9,1.4,5s-0.5,3.9-1.4,5.1C116.2,176.8,114.9,177.4,113.3,177.4z
		 M112.6,166c-1.1,0-1.9,0.3-2.4,1s-0.8,1.7-0.8,3.1v0.4c0,1.6,0.2,2.8,0.7,3.5s1.3,1.1,2.4,1.1c1,0,1.7-0.4,2.2-1.2
		s0.8-1.9,0.8-3.4s-0.3-2.6-0.8-3.4C114.4,166.3,113.6,166,112.6,166z"/>
	<path class="st1" d="M133.1,170.5c0,2.2-0.5,3.9-1.6,5.1c-1.1,1.2-2.6,1.8-4.5,1.8c-1.2,0-2.3-0.3-3.2-0.8
		c-0.9-0.6-1.6-1.4-2.1-2.4s-0.7-2.3-0.7-3.6c0-2.1,0.5-3.8,1.6-5s2.6-1.8,4.6-1.8c1.9,0,3.4,0.6,4.4,1.9
		C132.6,166.7,133.1,168.4,133.1,170.5z M123.7,170.5c0,3.1,1.1,4.6,3.3,4.6s3.3-1.5,3.3-4.6c0-3-1.1-4.5-3.3-4.5
		c-1.2,0-2,0.4-2.5,1.2C124,167.9,123.7,169,123.7,170.5z"/>
	<path class="st1" d="M145.4,177.2l-0.4-1.7h-0.1c-0.4,0.6-0.9,1.1-1.6,1.5c-0.7,0.4-1.5,0.5-2.4,0.5c-1.6,0-2.7-0.4-3.5-1.2
		s-1.2-2-1.2-3.6V164h2.8v8.2c0,1,0.2,1.8,0.6,2.3c0.4,0.5,1,0.8,1.9,0.8c1.2,0,2-0.4,2.5-1.1c0.5-0.7,0.8-1.9,0.8-3.6V164h2.8v13.3
		L145.4,177.2L145.4,177.2z"/>
	<path class="st1" d="M158.1,163.7c0.6,0,1,0,1.4,0.1l-0.3,2.6c-0.4-0.1-0.8-0.1-1.2-0.1c-1.1,0-2,0.4-2.7,1.1c-0.7,0.7-1,1.7-1,2.9
		v6.9h-2.7v-13.3h2.2l0.4,2.3h0.1c0.4-0.8,1-1.4,1.7-1.9C156.5,163.9,157.3,163.7,158.1,163.7z"/>
	<path class="st1" d="M172.9,175.1c0.7,0,1.3-0.1,2-0.3v2.1c-0.3,0.1-0.7,0.2-1.2,0.3s-1,0.1-1.5,0.1c-2.6,0-3.9-1.4-3.9-4.2V166
		h-1.8v-1.2l1.9-1l0.9-2.8h1.7v2.9h3.7v2.1H171v7.1c0,0.7,0.2,1.2,0.5,1.5C171.9,175,172.3,175.1,172.9,175.1z"/>
	<path class="st1" d="M189,170.5c0,2.2-0.5,3.9-1.6,5.1c-1.1,1.2-2.6,1.8-4.5,1.8c-1.2,0-2.3-0.3-3.2-0.8c-0.9-0.6-1.6-1.4-2.1-2.4
		s-0.7-2.3-0.7-3.6c0-2.1,0.5-3.8,1.6-5s2.6-1.8,4.6-1.8c1.9,0,3.4,0.6,4.4,1.9C188.4,166.7,189,168.4,189,170.5z M179.5,170.5
		c0,3.1,1.1,4.6,3.3,4.6s3.3-1.5,3.3-4.6c0-3-1.1-4.5-3.3-4.5c-1.2,0-2,0.4-2.5,1.2C179.8,167.9,179.5,169,179.5,170.5z"/>
	<path class="st1" d="M201.2,177.2l-0.4-1.7h-0.1c-0.4,0.6-0.9,1.1-1.6,1.5c-0.7,0.4-1.5,0.5-2.4,0.5c-1.6,0-2.7-0.4-3.5-1.2
		s-1.2-2-1.2-3.6V164h2.8v8.2c0,1,0.2,1.8,0.6,2.3c0.4,0.5,1,0.8,1.9,0.8c1.2,0,2-0.4,2.5-1.1c0.5-0.7,0.8-1.9,0.8-3.6V164h2.8v13.3
		L201.2,177.2L201.2,177.2z"/>
	<path class="st1" d="M216,173.4c0,1.3-0.5,2.3-1.4,3s-2.2,1-4,1c-1.7,0-3.1-0.3-4.2-0.8v-2.4c1.5,0.7,2.9,1.1,4.2,1.1
		c1.7,0,2.5-0.5,2.5-1.6c0-0.3-0.1-0.6-0.3-0.8s-0.5-0.5-0.9-0.7s-1-0.5-1.8-0.8c-1.5-0.6-2.5-1.2-3-1.8s-0.8-1.4-0.8-2.3
		c0-1.1,0.4-2,1.3-2.6c0.9-0.6,2.1-0.9,3.6-0.9s3,0.3,4.3,0.9l-0.9,2.1c-1.4-0.6-2.6-0.9-3.5-0.9c-1.5,0-2.2,0.4-2.2,1.3
		c0,0.4,0.2,0.8,0.6,1.1c0.4,0.3,1.2,0.7,2.5,1.2c1.1,0.4,1.8,0.8,2.3,1.2s0.8,0.8,1.1,1.2C215.9,172.2,216,172.7,216,173.4z"/>
</g>
<path class="st1" d="M61.1,115.2v-4.5c0-2.5,2.1-4.5,4.7-4.5h19.6v4.5c0,2.5-2.1,4.5-4.7,4.5H61.1z"/>
<path class="st1" d="M165.2,135.2h-6.4V67c0-2.5,2.1-4.5,4.7-4.5h6.4v68.2C170,133.2,167.8,135.2,165.2,135.2z"/>
<path class="st1" d="M222.7,135.2c-2.1,0-3.9-1.3-4.5-3.2l-1.2-3.7h-0.4c-2.5,3-5.1,5.1-7.6,6.1c-2.6,1.1-5.8,1.6-9.8,1.6
	c-5.1,0-9.2-1.3-12-3.9c-2.9-2.6-4.3-6.3-4.3-11.1c0-5.1,2-8.9,6-11.5s10.1-4,18.3-4.2l9-0.3v-2.6c0-3.2-0.8-5.5-2.3-7.1
	c-1.6-1.6-4-2.3-7.3-2.3c-2.7,0-5.3,0.4-7.7,1.1c-2.5,0.7-4.8,1.6-7.1,2.6l-1.6-3.4c-1.1-2.4,0.1-5.2,2.7-6.1c1.5-0.5,3-0.9,4.6-1.3
	c3.4-0.7,6.6-1.1,9.6-1.1c6.7,0,11.7,1.4,15.1,4.1s5.1,7,5.1,12.9v33.3L222.7,135.2L222.7,135.2z M202.6,128.1c4,0,7.3-1.1,9.7-3.2
	s3.7-5.1,3.7-9v-4.3l-6.7,0.3c-5.2,0.2-9,1-11.4,2.5s-3.6,3.7-3.6,6.8c0,2.2,0.7,3.9,2.1,5.1C197.8,127.5,199.9,128.1,202.6,128.1z"
	/>
<path class="st1" d="M237.9,177.7c-1.5,0-2.9-0.1-4.1-0.2c-2.4-0.3-4.2-2.2-4.2-4.5v-4.7c2.1,0.5,4.3,0.8,6.6,0.8
	c4.7,0,7.1-2.5,7.1-7.6V90.3c0-2.5,2.1-4.5,4.7-4.5h6.4v76.4c0,5.1-1.4,8.9-4.2,11.6C247.3,176.4,243.2,177.7,237.9,177.7z
	 M242.6,72.7c0-1.9,0.5-3.3,1.6-4.3s2.6-1.5,4.7-1.5c2,0,3.5,0.5,4.6,1.5s1.6,2.5,1.6,4.3s-0.5,3.2-1.6,4.2s-2.6,1.5-4.6,1.5
	s-3.6-0.5-4.7-1.5C243.1,75.9,242.6,74.5,242.6,72.7z"/>
<path class="st1" d="M274.6,129.4c-6.6-6.8-6.8-14.7-6.9-18.5c-0.1-2.2-0.3-11.8,6.4-19c4.3-4.6,10.1-6.9,17.6-6.9
	c6.9,0,12.4,2,16.4,5.9c4,4,6,9.4,6,16.4v5.7h-34.9c0.2,4.8,1.5,8.5,4.1,11.1s6.2,3.9,10.9,3.9c3.1,0,6-0.3,8.6-0.8
	c2.7-0.6,5.5-1.5,8.6-2.7v4.6c-0.1,1.2-0.2,1.9-1.1,2.9c-5.4,5.4-14.5,5-16.7,4.9C290.2,136.5,281.3,136.3,274.6,129.4z M291.6,92.9
	c-3.5,0-6.4,1.1-8.5,3.2s-3.4,5.2-3.8,9.2H303c-0.1-4.1-1.1-7.2-3.1-9.3C298,93.9,295.2,92.9,291.6,92.9z"/>
<path class="st1" d="M106.2,129.4c-6.6-6.8-6.8-14.7-6.9-18.5c-0.1-2.2-0.3-11.8,6.4-19c4.3-4.6,10.1-6.9,17.6-6.9
	c6.9,0,12.4,2,16.4,5.9c4,4,6,9.4,6,16.4v5.7h-34.9c0.2,4.8,1.5,8.5,4.1,11.1s6.2,3.9,10.9,3.9c3.1,0,6-0.3,8.6-0.8
	c2.7-0.6,5.5-1.5,8.6-2.7v4.6c-0.1,1.2-0.2,1.9-1.1,2.9c-5.4,5.4-14.5,5-16.7,4.9C121.8,136.5,113,136.3,106.2,129.4z M123.3,92.9
	c-3.5,0-6.4,1.1-8.5,3.2s-3.4,5.2-3.8,9.2h23.7c-0.1-4.1-1.1-7.2-3.1-9.3C129.6,93.9,126.8,92.9,123.3,92.9z"/>
<path class="st1" d="M7.8,129.4c-6.6-6.8-6.8-14.7-6.9-18.5c-0.1-2.2-0.3-11.8,6.4-19c4.3-4.6,10.1-6.9,17.6-6.9
	c6.9,0,12.4,2,16.4,5.9c4,4,6,9.4,6,16.4v5.7H12.4c0.2,4.8,1.5,8.5,4.1,11.1s6.2,3.9,10.9,3.9c3.1,0,6-0.3,8.6-0.8
	c2.7-0.6,5.5-1.5,8.6-2.7v4.6c-0.1,1.2-0.2,1.9-1.1,2.9c-5.4,5.4-14.5,5-16.7,4.9C23.4,136.5,14.6,136.3,7.8,129.4z M24.9,92.9
	c-3.5,0-6.4,1.1-8.5,3.2s-3.4,5.2-3.8,9.2h23.7c-0.1-4.1-1.1-7.2-3.1-9.3C31.2,93.9,28.4,92.9,24.9,92.9z"/>
</svg>
