<?xml version="1.0" encoding="utf-8"?>
<!-- Generator: Adobe Illustrator 25.4.1, SVG Export Plug-In . SVG Version: 6.00 Build 0)  -->
<svg version="1.1" id="illustration" xmlns="http://www.w3.org/2000/svg" xmlns:xlink="http://www.w3.org/1999/xlink" x="0px"
	 y="0px" viewBox="0 0 163.1 69.8" style="enable-background:new 0 0 163.1 69.8;" xml:space="preserve">
<style type="text/css">
	.st0{clip-path:url(#SVGID_00000105426105155632289630000011632784333801175711_);}
	.st1{fill:#FFFFFF;}
	.st2{fill:#B3DBFF;}
	.st3{fill:#CEE8FF;}
	.st4{fill:#EBF7FD;}
	.st5{clip-path:url(#SVGID_00000182519269028582203120000006894103983848492991_);fill:#5ACCC8;}
	.st6{clip-path:url(#SVGID_00000139255334174165314320000007238733659292157887_);fill:#5ACCC8;}
	.st7{clip-path:url(#SVGID_00000072238047125185153180000012303593285123874741_);fill:#ACE6FF;}
	.st8{clip-path:url(#SVGID_00000179615252216579473710000006677143654869545364_);fill:#ACE6FF;}
	.st9{clip-path:url(#SVGID_00000010277463367907086280000009958333068089227188_);fill:#ACE6FF;}
	.st10{fill:#85BFF0;}
	.st11{fill:#E1F3FD;}
	.st12{clip-path:url(#SVGID_00000096753828300579756620000010868662881520554379_);}
	.st13{fill:#FFC4AE;}
	.st14{fill:#E7B09D;}
	.st15{fill:#194865;}
	.st16{fill:#5ACCC8;}
	.st17{fill:#2B7FEA;}
	.st18{fill:#1C56E8;}
	.st19{fill:#16405A;}
	.st20{fill:#345F91;}
	.st21{fill:#3E7DA8;}
	.st22{clip-path:url(#SVGID_00000031202213916920775310000017691263079816296080_);fill:#83CCC9;}
	.st23{clip-path:url(#SVGID_00000069398353798102314870000002422282803429832108_);fill:#83CCC9;}
	.st24{clip-path:url(#SVGID_00000034773074911270981440000002185929809770878092_);fill:#CAEFFF;}
	.st25{clip-path:url(#SVGID_00000041253640763581760670000012067764007316705420_);fill:#CAEFFF;}
	.st26{clip-path:url(#SVGID_00000121237348168000495340000015618921464736199811_);fill:#CAEFFF;}
	.st27{fill:#A7C9E6;}
	.st28{fill:#D7F0FD;}
	.st29{fill:#BADFFF;}
	.st30{fill:#D0D9E8;}
</style>
<g>
	<defs>
		<rect id="SVGID_00000061449440072322064010000011986993359586583179_" x="-0.1" y="-0.1" width="163.2" height="69.9"/>
	</defs>
	<clipPath id="SVGID_00000070810960096958169720000011631608282432371095_">
		<use xlink:href="#SVGID_00000061449440072322064010000011986993359586583179_"  style="overflow:visible;"/>
	</clipPath>
	<g style="clip-path:url(#SVGID_00000070810960096958169720000011631608282432371095_);">
		<g>
			<path class="st1" d="M159.8,28.1h-5.4c-1.8,0-3.2-1.4-3.2-3.2l0,0c0-1.8,1.4-3.2,3.2-3.2h5.4c1.8,0,3.2,1.4,3.2,3.2l0,0
				C163.1,26.6,161.6,28.1,159.8,28.1z"/>
			<g>
				<path class="st2" d="M161.4,24h-8.5c-0.3,0-0.6-0.2-0.6-0.6l0,0c0-0.3,0.2-0.6,0.6-0.6h8.5c0.3,0,0.6,0.2,0.6,0.6l0,0
					C161.9,23.8,161.7,24,161.4,24z"/>
				<path class="st2" d="M159.7,26.7h-6.7c-0.3,0-0.6-0.2-0.6-0.6l0,0c0-0.3,0.2-0.6,0.6-0.6h6.7c0.3,0,0.6,0.2,0.6,0.6l0,0
					C160.2,26.5,160,26.7,159.7,26.7z"/>
			</g>
		</g>
		<g>
			<g>
				<polygon class="st3" points="127,69.8 50,69.8 50,22.7 127.4,22.7 				"/>
				<g>
					<path class="st4" d="M101.9,34.3H84.3c-2.1,0-3.8-1.7-3.8-3.8v-2.8c0-2.1,1.7-3.8,3.8-3.8h17.6c2.1,0,3.8,1.7,3.8,3.8v2.8
						C105.6,32.7,104,34.3,101.9,34.3z"/>
					<g>
						<rect x="83.1" y="25.4" class="st2" width="16.3" height="1.3"/>
						<rect x="83.1" y="28.5" class="st2" width="11.8" height="1.3"/>
						<rect x="83.1" y="31.6" class="st2" width="14.3" height="1.3"/>
					</g>
				</g>
				<g>
					<ellipse class="st4" cx="77.2" cy="32.1" rx="2.3" ry="2.3"/>
					<g>
						<path class="st2" d="M76.8,33.3C76.8,33.3,76.8,33.3,76.8,33.3c-0.1,0-0.2,0-0.2-0.1L75.7,32c-0.1-0.1,0-0.2,0-0.2
							c0.1-0.1,0.2,0,0.2,0l0.9,1.1l1.8-1.8c0.1-0.1,0.2-0.1,0.2,0s0.1,0.2,0,0.2L77,33.2C76.9,33.2,76.9,33.3,76.8,33.3z"/>
					</g>
				</g>
				<g>
					<circle class="st4" cx="77.2" cy="63.4" r="2.3"/>
					<g>
						<path class="st2" d="M76.8,64.6C76.8,64.6,76.8,64.6,76.8,64.6c-0.1,0-0.2,0-0.2-0.1l-0.9-1.1c-0.1-0.1,0-0.2,0-0.2
							c0.1-0.1,0.2,0,0.2,0l0.9,1.1l1.8-1.8c0.1-0.1,0.2-0.1,0.2,0c0.1,0.1,0.1,0.2,0,0.2L77,64.5C76.9,64.6,76.9,64.6,76.8,64.6z"
							/>
					</g>
				</g>
				<g>
					<g>
						<g>
							<path id="SVGID_1_" class="st1" d="M95.2,65.7H83.3c-1.5,0-2.8-1.2-2.8-2.8V52.8c0-1.5,1.2-2.8,2.8-2.8h11.8
								c1.5,0,2.8,1.2,2.8,2.8v10.1C98,64.4,96.7,65.7,95.2,65.7z"/>
						</g>
						<g>
							<defs>
								<path id="SVGID_00000067954147344121685070000009242194958301093817_" d="M95.2,65.7H83.3c-1.5,0-2.8-1.2-2.8-2.8V52.8
									c0-1.5,1.2-2.8,2.8-2.8h11.8c1.5,0,2.8,1.2,2.8,2.8v10.1C98,64.4,96.7,65.7,95.2,65.7z"/>
							</defs>
							<clipPath id="SVGID_00000067233986486449108400000007262831960050778781_">
								<use xlink:href="#SVGID_00000067954147344121685070000009242194958301093817_"  style="overflow:visible;"/>
							</clipPath>
							<polygon style="clip-path:url(#SVGID_00000067233986486449108400000007262831960050778781_);fill:#5ACCC8;" points="
								79.5,62.4 84.6,54.9 80.9,67.7 							"/>
						</g>
						<g>
							<defs>
								<path id="SVGID_00000178163757250735366520000000909263502182883971_" d="M95.2,65.7H83.3c-1.5,0-2.8-1.2-2.8-2.8V52.8
									c0-1.5,1.2-2.8,2.8-2.8h11.8c1.5,0,2.8,1.2,2.8,2.8v10.1C98,64.4,96.7,65.7,95.2,65.7z"/>
							</defs>
							<clipPath id="SVGID_00000053526719919814370700000000890931090976905912_">
								<use xlink:href="#SVGID_00000178163757250735366520000000909263502182883971_"  style="overflow:visible;"/>
							</clipPath>
							<path style="clip-path:url(#SVGID_00000053526719919814370700000000890931090976905912_);fill:#5ACCC8;" d="M88.9,61.6
								l4.6-5.6h0l-2.9,8.3L88.9,61.6z"/>
						</g>
						<g>
							<defs>
								<path id="SVGID_00000019646340755668787840000000269594305228323222_" d="M95.2,65.7H83.3c-1.5,0-2.8-1.2-2.8-2.8V52.8
									c0-1.5,1.2-2.8,2.8-2.8h11.8c1.5,0,2.8,1.2,2.8,2.8v10.1C98,64.4,96.7,65.7,95.2,65.7z"/>
							</defs>
							<clipPath id="SVGID_00000005250126385958914760000013806666464603127735_">
								<use xlink:href="#SVGID_00000019646340755668787840000000269594305228323222_"  style="overflow:visible;"/>
							</clipPath>
							<polygon style="clip-path:url(#SVGID_00000005250126385958914760000013806666464603127735_);fill:#ACE6FF;" points="
								84.6,54.9 93.2,66.5 80.9,67.7 							"/>
						</g>
						<g>
							<defs>
								<path id="SVGID_00000041279637805687753060000015470225802612374968_" d="M95.2,65.7H83.3c-1.5,0-2.8-1.2-2.8-2.8V52.8
									c0-1.5,1.2-2.8,2.8-2.8h11.8c1.5,0,2.8,1.2,2.8,2.8v10.1C98,64.4,96.7,65.7,95.2,65.7z"/>
							</defs>
							<clipPath id="SVGID_00000015337111731469870840000003794716559243930766_">
								<use xlink:href="#SVGID_00000041279637805687753060000015470225802612374968_"  style="overflow:visible;"/>
							</clipPath>
							<polygon style="clip-path:url(#SVGID_00000015337111731469870840000003794716559243930766_);fill:#ACE6FF;" points="93.5,56 
								99.1,66.1 88.5,67.3 							"/>
						</g>
						<g>
							<defs>
								<path id="SVGID_00000034051010073941965620000002258055431987001264_" d="M105.9,54.1l-2.7,11.5c-0.4,1.5-1.8,2.4-3.3,2.1
									L90,65.3c-1.5-0.4-2.4-1.8-2.1-3.3l2.7-11.5C91,49,92.5,48,94,48.4l9.8,2.3C105.3,51.1,106.2,52.6,105.9,54.1z"/>
							</defs>
							<clipPath id="SVGID_00000002384257434842833410000004861489303535144363_">
								<use xlink:href="#SVGID_00000034051010073941965620000002258055431987001264_"  style="overflow:visible;"/>
							</clipPath>
							
								<ellipse style="clip-path:url(#SVGID_00000002384257434842833410000004861489303535144363_);fill:#ACE6FF;" cx="93.2" cy="53.1" rx="2.3" ry="2.3"/>
						</g>
					</g>
				</g>
				<rect x="50" y="22.7" class="st10" width="77.4" height="5"/>
				<rect x="122.7" y="27.7" class="st2" width="4.7" height="42"/>
				<rect x="122.7" y="33.7" class="st10" width="4.7" height="8.6"/>
				<circle class="st11" cx="117.4" cy="25.3" r="1.3"/>
				<circle class="st11" cx="120.9" cy="25.3" r="1.3"/>
				<circle class="st11" cx="124.4" cy="25.3" r="1.3"/>
				<rect x="50" y="27.7" class="st2" width="21.6" height="42.1"/>
				<g>
					<g>
						<g>
							<circle id="SVGID_00000079459964668620413960000008150329532069005489_" class="st4" cx="60.8" cy="37.9" r="8.3"/>
						</g>
						<g>
							<defs>
								<circle id="SVGID_00000147923106679600890780000002116323977173211558_" cx="60.8" cy="37.9" r="8.3"/>
							</defs>
							<clipPath id="SVGID_00000101103078936375838570000009365371752854322583_">
								<use xlink:href="#SVGID_00000147923106679600890780000002116323977173211558_"  style="overflow:visible;"/>
							</clipPath>
							<g style="clip-path:url(#SVGID_00000101103078936375838570000009365371752854322583_);">
								<path class="st13" d="M62.8,33.2l-2.2-0.7h-0.1l-2.2,0.7L58,34.9v1.2c0,0.3,0.2,0.7,0.4,0.9l1.3,1.1
									c0.2,0.2,0.4,0.2,0.7,0.2h0.2c0.3,0,0.5-0.1,0.7-0.2l1.3-1.1c0.3-0.2,0.4-0.5,0.4-0.9v-1.2L62.8,33.2z"/>
								<rect x="58.8" y="37.2" class="st13" width="3.4" height="4.1"/>
								<path class="st14" d="M62.3,37.3v0.4l-0.9,0.7c-0.2,0.2-0.4,0.2-0.7,0.2h-0.2c-0.3,0-0.5-0.1-0.7-0.2l-0.9-0.7v-0.4l0.9,0.7
									c0.2,0.2,0.4,0.2,0.7,0.2h0.2c0.3,0,0.5-0.1,0.7-0.2L62.3,37.3z"/>
								<path class="st15" d="M58,35.1c-0.1,0-0.2,0-0.3,0c-0.5-0.1-0.5-0.7-0.4-1.1c0.1-0.8,0.4-1.7,1.1-2.2c0.5-0.4,1.3-0.6,2-0.6
									c1,0,1.8,0.2,2.6,0.9c0.6,0.6,0.9,1.4,0.9,2.3c0,0.6-0.7,1.1-1.1,0.6c-0.3-0.3-0.1-0.9-0.7-1c-0.3-0.1-0.7,0.1-1,0
									c-0.4,0-0.6-0.3-0.9-0.5c-0.2-0.2-0.6-0.3-0.8-0.1c-0.3,0.3-0.4,0.7-0.6,1.1C58.6,34.7,58.3,35,58,35.1z"/>
								<path class="st15" d="M63.1,39.7h-0.9c-0.4,0.8-0.7,1.2-1.7,1.2s-1.4-0.4-1.8-1.2H58c-1.7,0-3.1,1.2-3.1,2.6v3.2
									c0,1.5,1.4,2.6,3.1,2.6h5.2c1.7,0,3.1-1.2,3.1-2.6v-3.2C66.2,40.8,64.8,39.7,63.1,39.7z"/>
							</g>
						</g>
					</g>
				</g>
				<rect x="54.1" y="47.7" class="st4" width="14.8" height="1.4"/>
				<rect x="56" y="49.9" class="st4" width="11" height="1.4"/>
				<rect x="57.4" y="52.2" class="st4" width="8.2" height="1.4"/>
				<g>
					<path class="st4" d="M56.9,68L56.9,68c-0.6,0-1-0.4-1-1v-8.6c0-0.6,0.4-1,1-1l0,0c0.6,0,1,0.4,1,1v8.6
						C57.9,67.6,57.4,68,56.9,68z"/>
					<path class="st16" d="M56.9,68L56.9,68c-0.6,0-1-0.4-1-1v-6.7c0-0.6,0.4-1,1-1l0,0c0.6,0,1,0.4,1,1v6.7
						C57.9,67.6,57.4,68,56.9,68z"/>
					<path class="st4" d="M60,68L60,68c-0.6,0-1-0.4-1-1v-8.6c0-0.6,0.4-1,1-1l0,0c0.6,0,1,0.4,1,1v8.6C61,67.6,60.5,68,60,68z"/>
					<path class="st16" d="M60,68L60,68c-0.6,0-1-0.4-1-1v-5.2c0-0.6,0.4-1,1-1l0,0c0.6,0,1,0.4,1,1v5.2C61,67.6,60.5,68,60,68z"/>
					<path class="st4" d="M63,68L63,68c-0.6,0-1-0.4-1-1v-8.6c0-0.6,0.4-1,1-1l0,0c0.6,0,1,0.4,1,1v8.6C64,67.6,63.6,68,63,68z"/>
					<path class="st16" d="M63,68L63,68c-0.6,0-1-0.4-1-1v-3.8c0-0.6,0.4-1,1-1l0,0c0.6,0,1,0.4,1,1V67C64,67.6,63.6,68,63,68z"/>
					<path class="st4" d="M66.1,68L66.1,68c-0.6,0-1-0.4-1-1v-8.6c0-0.6,0.4-1,1-1l0,0c0.6,0,1,0.4,1,1v8.6
						C67.1,67.6,66.7,68,66.1,68z"/>
					<path class="st16" d="M66.1,68L66.1,68c-0.6,0-1-0.4-1-1v-7.5c0-0.6,0.4-1,1-1l0,0c0.6,0,1,0.4,1,1v7.5
						C67.1,67.6,66.7,68,66.1,68z"/>
				</g>
			</g>
			<g>
				<path class="st13" d="M111.3,32c-1.3,0.4-2.1,1-2.1,1c-0.3-0.2-0.4,0.6-0.3,0.8c0,0.5,0.4,1,0.3,1.5c0,0.3-0.1,0.6-0.2,0.9
					c-0.1,0.4-0.2,0.7-0.3,1c0,0.1,0,0.1,0.1,0.1h0.7c1,2,3.4,3.7,5.8,0.6c0,0,1.1-1.5,1.3-2.4C116.7,34.6,115.3,30.7,111.3,32z"/>
				<g>
					<g>
						<g>
							<path class="st13" d="M100.2,40.7l-1.1,1.6c0,0-0.2-0.2-0.4-0.4c-0.1-0.1-0.1-0.1-0.2-0.2c0,0,0,0-0.1,0
								c-0.2,0-0.9,0.1-1.3-0.3c-0.3-0.2-0.5-0.5-0.7-0.7c-0.1-0.1-0.2-0.2-0.3-0.3l-0.1,0c-0.2-0.1-0.2-0.3,0-0.5
								c0.1-0.1,0.3-0.1,0.4,0l0,0c-0.1-0.1-0.2-0.2-0.2-0.2c-0.2-0.2,0-0.5,0.2-0.5c0.1,0,0.1,0,0.2,0.1l-0.5-0.4
								c-0.2-0.1-0.2-0.3,0-0.5c0.1-0.1,0.3-0.1,0.4,0l0.3,0.2c-0.2-0.1-0.2-0.3,0-0.5c0.1-0.1,0.3-0.1,0.4,0
								c0.2,0.2,0.4,0.3,0.7,0.4c0.1,0.1,0.2,0.1,0.4,0.2c0.1,0.1,0.2,0.2,0.4,0.2c0.1,0.1,0.6,0.2,0.8-0.6c0.2-0.5,0.7-0.3,0.7,0
								c0,0.3-0.4,1.3-0.5,1.8C99.7,40.3,100.2,40.7,100.2,40.7z"/>
							<g>
								<path class="st14" d="M96.7,38.4l1,0.8c0,0,0,0,0,0.1c0,0,0,0-0.1,0l0,0L96.7,38.4z"/>
								<path class="st14" d="M96.5,39l1,0.7c0,0,0,0,0,0.1c0,0,0,0-0.1,0l0,0L96.5,39z"/>
								<path class="st14" d="M96.4,39.8l0.9,0.6c0,0,0,0,0,0.1c0,0,0,0-0.1,0l0,0L96.4,39.8z"/>
							</g>
							<path class="st14" d="M98.7,41.9c-0.1-0.1-0.1-0.1-0.2-0.2c0,0,0,0-0.1,0c0.1-0.1,0.1-0.2,0.1-0.3c0,0,0,0,0,0
								C98.7,41.6,98.7,41.8,98.7,41.9z"/>
						</g>
						<g>
							<path class="st17" d="M109.3,47.3c-0.9,0.7-2.2,0.8-3.3,0.8c-0.5,0-1-0.1-1.5-0.2c-0.7-0.2-1.2-0.6-1.8-0.9
								c-0.8-0.5-2-1.3-2.3-2.4c0-0.1-0.1-0.3-0.2-0.4c-0.1-0.2-0.1-0.3-0.2-0.5c-0.1-0.3-0.3-0.6-0.3-0.9v0
								c-0.1-0.9,0.4-1.7,1.2-1.8c0,0,0.1,0,0.1,0c0.1,0,0.2,0,0.2,0c1.3,0.3,3.2,2.3,3.9,3c0.2,0.2,0.5,0.2,0.7,0.1
								c0.9-0.5,6.8-2.6,8.5-2.4C116.6,42.1,111.2,46,109.3,47.3z"/>
							<path class="st18" d="M101.4,40.8l-0.1,0.2l-1.1,3.2c-0.1-0.2-0.1-0.3-0.2-0.5c-0.1-0.3-0.3-0.6-0.3-0.9v0L101,41l0.2-0.3
								L101.4,40.8z"/>
							<path class="st17" d="M101.3,41l-1.6,2.2c-0.1,0.2-0.4,0.2-0.6,0.1l-0.4-0.3c-0.2-0.1-0.2-0.4-0.1-0.6l1.6-2.2
								c0.1-0.2,0.4-0.2,0.6-0.1l0.4,0.3C101.4,40.5,101.4,40.8,101.3,41z"/>
						</g>
					</g>
					<g>
						<path class="st4" d="M97,46.9H79.4c-2.1,0-3.8-1.7-3.8-3.8v-2.8c0-2.1,1.7-3.8,3.8-3.8H97c2.1,0,3.8,1.7,3.8,3.8v2.8
							C100.7,45.2,99,46.9,97,46.9z"/>
						<g>
							<rect x="78.2" y="37.9" class="st2" width="16.3" height="1.3"/>
							<rect x="78.2" y="41" class="st2" width="11.8" height="1.3"/>
							<rect x="78.2" y="44.1" class="st2" width="14.3" height="1.3"/>
						</g>
					</g>
					<g>
						<g>
							<path class="st13" d="M116.1,42.5c0,0-6.2,2.1-5.1-0.1c0.4-0.8,0.6-1.5,0.7-2.1c0.1-0.9-0.1-1.4-0.1-1.4s0.9-0.7,1.9-1.4
								c1.3-0.9,2.7-1.9,2.7-1.3C116,37.1,116.1,42.5,116.1,42.5z"/>
							<path class="st19" d="M109.3,33.3c0,0-0.1,0-0.2,0c-0.4,0-0.7,0-1-0.1c-0.9-0.4-0.3-1.4,0.2-1.9c1.7-1.7,3.2-2.1,5.7-2
								c1.7,0.1,3.4,1.6,3.3,3.4c-0.1,0.9-0.1,1.8-0.2,2.7c-0.1,0.5-0.4,1.3-1.1,1c-0.7-0.2-0.4-1.1-0.3-1.5c0.1-0.5-0.3-1.1-1-1.1
								c-0.6,0-0.9,0.6-1.1,1.1c-0.1,0.2-0.1,0.4-0.2,0.5c-0.1,0.1-0.3,0.2-0.4,0.2c-0.2,0-0.3,0-0.5-0.1c-0.3-0.2-0.1-0.6,0-0.9
								c0-0.1,0-0.3,0-0.4c0-0.3-0.2-0.5-0.4-0.7c-0.3-0.3-0.8-0.3-1.2-0.3C110.4,33.2,109.8,33.2,109.3,33.3z"/>
							<path class="st14" d="M115.5,37.8c0,0.1,0,0.2-0.1,0.2c-1,2.4-2.9,2.5-3.8,2.4c0-0.4,0-0.8,0-1c1.1,0.5,2.4,0.4,3.6-1.4
								C115.3,38.1,115.4,38,115.5,37.8z"/>
						</g>
						<g>
							<g>
								<path class="st13" d="M105.3,86l-0.1,1.1l1,1.1l2.4-0.6l0.1-0.5c0,0-0.2-0.4-0.1-1.3C108.6,84.8,105.3,86,105.3,86z"/>
								<path class="st20" d="M108.9,90.1c-2.6,0.9-5.5,0.8-8-0.2c-0.2-0.1-0.2-0.2-0.1-0.5c0.1-0.1,0.1-0.4,0.2-0.5
									c0.2-0.2,0.6-0.4,0.9-0.5c0.1,0,0.3-0.1,0.4-0.1c0.1,0,0.2,0,0.4,0c0.2,0,0.4,0,0.6,0h0c0.1,0,0.1,0,0.2,0
									c0.1,0,0.2,0,0.3,0c0.1,0,0.2,0,0.4-0.1c0.1,0,0.2-0.1,0.3-0.1c0.4-0.2,0.7-0.5,0.9-0.9c1.1,0.6,2.4,0.6,3.5,0
									c0.4,0.5,0.6,1.1,0.6,1.8c0,0.2,0,0.5,0,0.7C109.3,89.9,109.1,90,108.9,90.1z"/>
								<path class="st21" d="M109.1,90.1c-2.7,1-5.9,1.3-8.4,0.1c-0.1,0-0.2-0.2-0.1-0.3c0.1-0.2,0.3-0.8,0.5-0.9
									c0.3,0.1,0.6,0.2,0.9,0.3c0.4,0.1,0.8,0.1,1.1,0.2c0.8,0.1,1.6,0.1,2.5,0.1c0.9,0,2,0,2.9-0.2c0.2,0,0.6-0.2,0.9-0.3
									c0,0.3,0,0.6,0,0.8C109.3,89.9,109.2,90,109.1,90.1z"/>
								<g>
									<path class="st21" d="M103.4,89.2C103.3,89.2,103.3,89.2,103.4,89.2c-0.1,0-0.1,0-0.2,0c-0.2-0.4-0.6-0.6-0.9-0.8
										c0.1,0,0.2,0,0.4,0c0.3,0.2,0.5,0.4,0.7,0.7C103.4,89.1,103.4,89.2,103.4,89.2z"/>
								</g>
								<g>
									<path class="st21" d="M104.2,89.1C104.2,89.1,104.2,89.1,104.2,89.1c-0.1,0-0.1,0-0.2,0c-0.2-0.3-0.5-0.6-0.9-0.8
										c0.1,0,0.2,0,0.4,0c0.3,0.2,0.5,0.4,0.7,0.7C104.3,89,104.3,89.1,104.2,89.1z"/>
								</g>
								<g>
									<path class="st21" d="M105,88.9C105,88.9,105,88.9,105,88.9c-0.1,0-0.1,0-0.2,0c-0.2-0.3-0.5-0.6-0.8-0.8
										c0.1,0,0.2-0.1,0.3-0.1c0.3,0.2,0.5,0.4,0.7,0.7C105.1,88.8,105.1,88.8,105,88.9z"/>
								</g>
							</g>
							<g>
								<path class="st13" d="M117,86l0,1.1l1,1.1l2.3-0.6l0.1-0.5c0,0-0.2-0.4-0.1-1.3C120.3,84.7,117,86,117,86z"/>
								<path class="st20" d="M120.5,90.1c-2.5,0.9-5.3,0.8-7.6-0.2c-0.2-0.1-0.2-0.2,0-0.4c0.1-0.1,0-0.4,0.1-0.5
									c0.2-0.2,0.6-0.4,0.9-0.5c0.1,0,0.3-0.1,0.4-0.1c0.1,0,0.2,0,0.4,0c0.2,0,0.4,0,0.6,0h0c0.1,0,0.1,0,0.2,0
									c0.1,0,0.2,0,0.3,0c0.1,0,0.2,0,0.3-0.1c0.1,0,0.2-0.1,0.2-0.1c0.4-0.2,0.7-0.5,0.8-0.9c1,0.6,2.3,0.6,3.4,0
									c0.4,0.5,0.6,1.1,0.6,1.8c0,0.2,0,0.5,0,0.7C120.9,89.8,120.7,90,120.5,90.1z"/>
								<path class="st21" d="M120.7,90.1c-2.5,1-5.5,1.1-8,0c-0.1,0-0.1-0.2-0.1-0.3c0.1-0.2,0.2-0.6,0.4-0.8
									c0.4,0.1,0.7,0.3,1.1,0.4c0.4,0.1,0.9,0.1,1.3,0.2c1.5,0.1,3.1,0.1,4.6-0.2c0.2,0,0.6-0.2,0.9-0.3c0,0.3,0,0.6,0,0.9
									C120.9,89.9,120.8,90,120.7,90.1z"/>
								<g>
									<path class="st21" d="M115.2,89.2C115.2,89.2,115.2,89.2,115.2,89.2c-0.1,0-0.1,0-0.2,0c-0.2-0.4-0.5-0.6-0.9-0.8
										c0.1,0,0.2,0,0.4,0c0.3,0.2,0.5,0.4,0.7,0.7C115.3,89.1,115.3,89.1,115.2,89.2z"/>
								</g>
								<g>
									<path class="st21" d="M116.1,89.1C116.1,89.1,116,89.1,116.1,89.1c-0.1,0-0.1,0-0.2,0c-0.2-0.3-0.5-0.6-0.8-0.8
										c0.1,0,0.2,0,0.4,0c0.2,0.2,0.5,0.4,0.6,0.7C116.1,88.9,116.1,89,116.1,89.1z"/>
								</g>
								<g>
									<path class="st21" d="M116.8,88.9C116.8,88.9,116.8,88.9,116.8,88.9c-0.1,0-0.1,0-0.2,0c-0.2-0.3-0.4-0.6-0.7-0.8
										c0.1,0,0.2-0.1,0.2-0.1c0.2,0.2,0.5,0.4,0.7,0.7C116.9,88.7,116.8,88.8,116.8,88.9z"/>
								</g>
							</g>
							<g>
								<path class="st21" d="M120.5,84.1c0,0-3.1,3.8-4.3,0.9c-1.1-2.6-1.5-4.2-1.7-6.1c-0.3-3.1-1-6.1-2.4-8.8c0,0,0,0,0,0
									c-0.1-0.2-0.2-0.5-0.3-0.7c-0.2-0.5-0.4-0.8-0.4-0.8l2.9-6.9l0.9-2.3l0.1-0.2l0.2-0.4l0.1-0.1l0.3-0.7l0.2-0.4
									c0,0,0.1,0.1,0.3,0.4c0.1,0.2,0.2,0.5,0.4,0.9c0,0,0,0.1,0,0.1l0,0c0,0.1,0,0.1,0,0.2c0,0,0,0.1,0,0.1
									c0.3,0.8,0.6,1.9,0.9,3.5c1.1,5.7,0.5,8.5,1.1,10C120.5,77,120.5,84.1,120.5,84.1z"/>
								<path class="st21" d="M120.6,86.2c-0.8,0.5-2.2,0.5-2.8,0.5c-0.8,0-2.2-0.1-2.2-1.2v-0.1c0-0.6,0.3-1,0.8-1.1l4.1-0.4
									c0.5,0,0.9,0.4,0.9,0.9v0.1C121.4,85.5,121.1,85.9,120.6,86.2z"/>
								<path class="st20" d="M116,84.4c0.4-0.1,0.6-0.2,1-0.3c0.2,0,0.4-0.1,0.6-0.1c0.2,0,0.4,0,0.6-0.1c0.2,0,0.4,0,0.6,0
									s0.4,0,0.6,0c0.4,0,0.8,0,1.2,0c-0.4,0.1-0.8,0.1-1.2,0.1l-1.2,0.1l-1.2,0.1C116.6,84.3,116.4,84.4,116,84.4z"/>
								<g>
									<path class="st20" d="M118,84.1c-0.7-2-1.1-4.8-1.4-6.9c-0.1-0.8-0.3-1.6-0.4-2.4c-0.6-2.8-1.3-5.5-2-8.2l-0.1-0.4l0.2-0.1
										l0.1,0.4c0.7,2.7,1.4,5.4,2,8.2c0.2,0.8,0.3,1.6,0.4,2.4c0.4,2.1,0.7,4.9,1.4,6.9L118,84.1z"/>
								</g>
							</g>
							<path class="st20" d="M112.5,70.8c-0.4-0.8-1.1-2.2-1.1-2.2l2.9-6.9l2.3-2.8C116.5,58.8,117.1,64.2,112.5,70.8z"/>
							<g>
								<path class="st21" d="M116.8,58.6c0,0.1,0,0.2-0.1,0.4c0,0,0,0.1,0,0.1c0,0.1,0,0.1-0.1,0.2c0,0,0,0.1,0,0.1
									c-0.8,3.4-2.5,6.2-3,7.3c-1.3,2.6-3.2,5.4-3.4,8.4c-0.2,3-0.2,7.3-0.4,8.7c0,0.3-0.2,0.5-0.4,0.7c-1.2,0.7-4.9,2.4-5.1,0.1
									c-0.2-2.1,0.8-8.6,1.3-11.6c0.2-1.1,0.3-2.2,0.3-3.3c0-4.9,0.4-6.9,1.1-8.9c0,0,0,0,0-0.1c0.1-0.3,0.7-1.6,0.8-1.7
									c0,0,0,0,0,0c0.1-0.1,0.5-0.1,0.6-0.1l0,0c0.1-0.2,0.4-0.4,0.6-0.4c1.2-0.2,5.1-0.8,7-0.5c0.2,0,0.3,0,0.4,0.1
									c0.3,0.1,0.5,0.2,0.6,0.4C116.8,58.5,116.8,58.5,116.8,58.6z"/>
								<path class="st21" d="M109.5,86.3c-0.2,0.1-0.4,0.1-0.6,0.2c-0.9,0.3-1.9,0.3-2.8,0.2c-0.8-0.1-2.3-0.3-2.4-1.3v-0.1
									c0-0.6,0.4-1,0.8-1l4.7-0.2c0.5,0,0.9,0.4,0.9,1v0.1C110.2,85.7,109.9,86.1,109.5,86.3z"/>
								<path class="st20" d="M104.1,84.3c0.4-0.1,0.9-0.3,1.4-0.3c0.2,0,0.5,0,0.7-0.1s0.5,0,0.7,0c0.2,0,0.5,0,0.7,0s0.5,0,0.7,0
									c0.5,0,0.8,0.1,1.3,0.1c-0.5,0-0.8,0-1.3,0c-0.2,0-0.5,0-0.7,0l-0.7,0c-0.5,0-0.9,0-1.4,0C105,84.3,104.6,84.4,104.1,84.3z"
									/>
								<g>
									<path class="st20" d="M106.7,84.1c0.1-12.3,1.8-17.3,5.1-24.9l0.2,0.1c-3.3,7.5-5,12.5-5.1,24.7H106.7z"/>
								</g>
							</g>
							<path class="st20" d="M116.6,59c0,0.1,0,0.1,0,0.2h-0.1c-0.4,0-2.5,0.7-3.9,0.9c-2.4,0.4-4.9,0.5-5.8,0.6
								c0.1-0.3,0.7-1.6,0.8-1.7c0,0,0,0,0,0c0.1,0,0.2,0,0.5,0c3.4-0.8,5.8-0.7,7.4-0.4c0,0,0,0,0,0c0.4,0.1,0.8,0.2,1.1,0.2
								c0,0,0,0,0.1,0C116.6,59,116.6,59,116.6,59z"/>
						</g>
						<g>
							<path class="st17" d="M116.8,59.1c-3.1,0.2-5.9,0.6-9,0.1c-0.3,0-0.6-0.2-0.6-0.5c0-0.6,0-1.6,0-2.8c0-0.9,0-1.9,0.1-2.9
								c0.1-2.2,0.2-4.5,0.6-6c0.7-3.5,3.3-5.1,5.7-5.8c2.4-0.7,3.8,0.6,4.2,2.8c0.4,2.4,0.4,8.9,0,11.3c-0.2,1.1-0.7,3.1-0.8,3.7
								C116.9,59,116.8,59,116.8,59.1z"/>
							<g>
								<g>
									<path class="st13" d="M98.7,45.3l-1.3,1.9c0,0-0.3-0.2-0.4-0.5c-0.1-0.1-0.2-0.2-0.2-0.2c0,0,0,0-0.1,0
										c-0.3,0-1.1,0.1-1.6-0.4c-0.3-0.3-0.6-0.6-0.8-0.8c-0.1-0.2-0.5-0.4-0.5-0.4c-0.2-0.1-0.2-0.4,0-0.6c0.1-0.2,0.4-0.2,0.5,0
										l-0.1,0c-0.1-0.1-0.2-0.2-0.3-0.3c-0.2-0.2,0-0.6,0.3-0.6c0.1,0,0.1,0,0.2,0.1L93.7,43c-0.2-0.1-0.2-0.4,0-0.6
										c0.1-0.2,0.4-0.2,0.5,0l0.4,0.3c-0.2-0.1-0.2-0.4,0-0.6c0.1-0.2,0.4-0.2,0.5,0c0.2,0.2,0.5,0.3,0.8,0.5
										c0.2,0.1,0.3,0.2,0.4,0.3c0.2,0.1,0.3,0.2,0.4,0.3c0.2,0.1,0.7,0.2,1-0.7c0.2-0.6,0.8-0.4,0.9,0c0,0.3-0.4,1.6-0.6,2.1
										C98,44.9,98.7,45.3,98.7,45.3z"/>
									<g>
										<path class="st14" d="M94.4,42.6l1.3,0.9c0,0,0,0.1,0,0.1c0,0-0.1,0-0.1,0l0,0L94.4,42.6z"/>
										<path class="st14" d="M94.1,43.3l1.2,0.9c0,0,0,0.1,0,0.1c0,0-0.1,0-0.1,0l0,0L94.1,43.3z"/>
										<path class="st14" d="M94,44.2l1.1,0.8c0,0,0,0.1,0,0.1c0,0-0.1,0-0.1,0l0,0L94,44.2z"/>
									</g>
									<path class="st14" d="M96.8,46.8c-0.1-0.1-0.2-0.2-0.2-0.2c0,0,0,0-0.1,0c0.1-0.1,0.1-0.2,0.2-0.4c0,0,0.1,0,0.1,0
										C96.8,46.4,96.8,46.6,96.8,46.8z"/>
								</g>
								<g>
									<path class="st17" d="M98,48.4l1,1.3c0,0,3.8,5.3,8.3,4.6c4.6-0.8,10.1-7.5,9.8-10.4c-0.2-2.8-6.9-1.7-10.5,6
										c-0.2,0.3-0.6,0.4-0.8,0.2c-1.2-1.1-4.2-3.9-6.3-4.2C97,45.2,98,48.4,98,48.4z"/>
									<polygon class="st18" points="100,45.6 99,49.7 97.8,48.4 									"/>
									<path class="st17" d="M99.8,46l-1.6,2.1c-0.3,0.3-0.7,0.4-1.1,0.2l0,0c-0.3-0.3-0.4-0.7-0.2-1.1l1.6-2.1
										c0.3-0.3,0.7-0.4,1.1-0.2l0,0C100,45.2,100.1,45.7,99.8,46z"/>
								</g>
							</g>
							<path class="st18" d="M113.8,42.6c-0.6,0.2-1.2,0.5-1.8,0.8c-0.2,0.1-0.3,0.2-0.4,0.2c-0.1,0-0.1,0.1-0.2,0.1
								c-0.1,0-0.1,0.1-0.2,0.1c-0.3,0.2-0.5,0.4-0.8,0.6c-0.3,0.2-0.5,0.4-0.7,0.7c-0.2,0.2-0.5,0.5-0.7,0.7
								c-0.4,0.5-0.9,1.4-1.3,2.1c0.2-0.7,0.8-1.7,1.2-2.2c0.4-0.5,0.9-1,1.4-1.4c0.5-0.4,1.1-0.8,1.7-1.1
								C112.5,43,113.1,42.8,113.8,42.6z"/>
							<path class="st18" d="M114.7,51.1c-2.8,4.2-6.1,4.7-7.6,4.7c0-0.5,0-1,0-1.6c0,0,0.1,0,0.1,0c4-0.7,8.8-6,9.7-9.3
								C117.2,46,116.9,48,114.7,51.1z"/>
							<path class="st18" d="M110.5,42.5c-0.2,0.2-0.1,0.1-0.2,0.3c-0.2,0.2-0.3,0.4-0.5,0.6c-0.2,0.2-0.3,0.4-0.4,0.6
								c-0.1,0.2-0.3,0.4-0.4,0.7c-0.1,0.2-0.3,0.4-0.4,0.7c-0.1,0.2-0.2,0.5-0.4,0.7c-0.2,0.5-0.5,1.5-0.6,2c0-0.3,0.2-1,0.2-1.3
								c0.1-0.2,0.2-0.5,0.2-0.8c0.2-0.5,0.4-0.9,0.7-1.4s0.6-0.9,0.9-1.3C110,42.9,110.1,42.9,110.5,42.5z"/>
						</g>
					</g>
				</g>
			</g>
			<g>
				<g>
					<g>
						<path id="SVGID_00000064316454870645926280000002321949029497213329_" class="st1" d="M44.8,49.1h-4.6c-1.5,0-2.8-1.2-2.8-2.8
							v-3.6c0-1.5,1.2-2.8,2.8-2.8h4.6c1.5,0,2.8,1.2,2.8,2.8v3.6C47.5,47.9,46.3,49.1,44.8,49.1z"/>
					</g>
					<g>
						<defs>
							<path id="SVGID_00000011717581293050850680000003321736055821327032_" d="M44.8,49.1h-4.6c-1.5,0-2.8-1.2-2.8-2.8v-3.6
								c0-1.5,1.2-2.8,2.8-2.8h4.6c1.5,0,2.8,1.2,2.8,2.8v3.6C47.5,47.9,46.3,49.1,44.8,49.1z"/>
						</defs>
						<clipPath id="SVGID_00000171680550063762624830000010054959047936276389_">
							<use xlink:href="#SVGID_00000011717581293050850680000003321736055821327032_"  style="overflow:visible;"/>
						</clipPath>
						<polygon style="clip-path:url(#SVGID_00000171680550063762624830000010054959047936276389_);fill:#83CCC9;" points="
							36.7,47.2 39.7,42.8 37.6,50.3 						"/>
					</g>
					<g>
						<defs>
							<path id="SVGID_00000152959241693971314690000018137732535415006369_" d="M44.8,49.1h-4.6c-1.5,0-2.8-1.2-2.8-2.8v-3.6
								c0-1.5,1.2-2.8,2.8-2.8h4.6c1.5,0,2.8,1.2,2.8,2.8v3.6C47.5,47.9,46.3,49.1,44.8,49.1z"/>
						</defs>
						<clipPath id="SVGID_00000140729370739672295160000014403915066268204978_">
							<use xlink:href="#SVGID_00000152959241693971314690000018137732535415006369_"  style="overflow:visible;"/>
						</clipPath>
						<path style="clip-path:url(#SVGID_00000140729370739672295160000014403915066268204978_);fill:#83CCC9;" d="M42.3,46.7
							l2.7-3.2l0,0l-1.7,4.8L42.3,46.7z"/>
					</g>
					<g>
						<defs>
							<path id="SVGID_00000098935557223810569980000014202878468884398266_" d="M44.8,49.1h-4.6c-1.5,0-2.8-1.2-2.8-2.8v-3.6
								c0-1.5,1.2-2.8,2.8-2.8h4.6c1.5,0,2.8,1.2,2.8,2.8v3.6C47.5,47.9,46.3,49.1,44.8,49.1z"/>
						</defs>
						<clipPath id="SVGID_00000052082985934155856590000004371503027403154082_">
							<use xlink:href="#SVGID_00000098935557223810569980000014202878468884398266_"  style="overflow:visible;"/>
						</clipPath>
						<polygon style="clip-path:url(#SVGID_00000052082985934155856590000004371503027403154082_);fill:#CAEFFF;" points="
							39.7,42.8 44.8,49.6 37.6,50.3 						"/>
					</g>
					<g>
						<defs>
							<path id="SVGID_00000023280749593594419250000004945100446332508569_" d="M44.8,49.1h-4.6c-1.5,0-2.8-1.2-2.8-2.8v-3.6
								c0-1.5,1.2-2.8,2.8-2.8h4.6c1.5,0,2.8,1.2,2.8,2.8v3.6C47.5,47.9,46.3,49.1,44.8,49.1z"/>
						</defs>
						<clipPath id="SVGID_00000055693304058079285520000013322219448368223898_">
							<use xlink:href="#SVGID_00000023280749593594419250000004945100446332508569_"  style="overflow:visible;"/>
						</clipPath>
						<polygon style="clip-path:url(#SVGID_00000055693304058079285520000013322219448368223898_);fill:#CAEFFF;" points="45,43.4 
							48.2,49.4 42,50 						"/>
					</g>
					<g>
						<defs>
							<path id="SVGID_00000039851590455193356480000010616124006730460040_" d="M44.8,49.1h-4.6c-1.5,0-2.8-1.2-2.8-2.8v-3.6
								c0-1.5,1.2-2.8,2.8-2.8h4.6c1.5,0,2.8,1.2,2.8,2.8v3.6C47.5,47.9,46.3,49.1,44.8,49.1z"/>
						</defs>
						<clipPath id="SVGID_00000072972394451648559650000011657159065252618173_">
							<use xlink:href="#SVGID_00000039851590455193356480000010616124006730460040_"  style="overflow:visible;"/>
						</clipPath>
						
							<circle style="clip-path:url(#SVGID_00000072972394451648559650000011657159065252618173_);fill:#CAEFFF;" cx="44.8" cy="41.8" r="1.3"/>
					</g>
				</g>
			</g>
			<g>
				<polygon class="st27" points="66.6,15.5 73.6,9.6 72.1,8 66.6,15.3 				"/>
				<g>
					<polygon class="st28" points="70.6,10.4 75.6,11.9 77.3,1.7 					"/>
					<polygon class="st28" points="66.6,9 77.3,1.7 61.7,7.3 					"/>
				</g>
				<polygon class="st29" points="66.6,14.3 66.6,9 77.3,1.7 66.6,15.5 				"/>
			</g>
			<g>
				<g>
					<path class="st30" d="M2.1,51.6c0,0-0.1,0-0.1-0.1c-0.1-0.2-0.1-0.5-0.2-0.7c0-0.1,0-0.1,0.1-0.1c0.1,0,0.1,0,0.1,0.1
						c0,0.2,0.1,0.5,0.2,0.7C2.3,51.5,2.2,51.6,2.1,51.6C2.1,51.6,2.1,51.6,2.1,51.6z"/>
				</g>
				<g>
					<path class="st30" d="M1.8,50.2c0,0-0.1,0-0.1-0.1c-0.1-0.5-0.1-1-0.1-1.5c0-0.1,0-0.1,0.1-0.1c0.1,0,0.1,0,0.1,0.1
						c0,0.5,0.1,1,0.1,1.4C2,50.1,1.9,50.2,1.8,50.2C1.9,50.2,1.8,50.2,1.8,50.2z M1.7,48L1.7,48c-0.1,0-0.1,0-0.1-0.1
						c0-0.5,0-1,0.1-1.5c0-0.1,0.1-0.1,0.1-0.1c0.1,0,0.1,0.1,0.1,0.1c-0.1,0.5-0.1,0.9-0.1,1.4C1.8,47.9,1.8,48,1.7,48z M30,46.2
						c-0.2,0-0.3,0-0.4,0c-0.1,0-0.1,0-0.1-0.1c0-0.1,0-0.1,0.1-0.1c0.2,0,0.3,0,0.4,0c0.3,0,0.7,0,1,0c0.1,0,0.1,0,0.1,0.1
						c0,0.1,0,0.1-0.1,0.1C30.7,46.2,30.4,46.2,30,46.2L30,46.2z M28.9,46.2C28.9,46.2,28.8,46.2,28.9,46.2c-0.5,0-1-0.1-1.5-0.2
						c-0.1,0-0.1-0.1-0.1-0.1c0-0.1,0.1-0.1,0.1-0.1c0.5,0.1,1,0.1,1.4,0.2c0.1,0,0.1,0.1,0.1,0.1C29,46.1,28.9,46.2,28.9,46.2z
						 M31.8,46.1c-0.1,0-0.1,0-0.1-0.1c0-0.1,0-0.1,0.1-0.1c0.5,0,1-0.1,1.4-0.2c0.1,0,0.1,0,0.1,0.1c0,0.1,0,0.1-0.1,0.1
						C32.8,46,32.3,46.1,31.8,46.1L31.8,46.1z M26.7,45.9L26.7,45.9c-0.5-0.1-1-0.2-1.5-0.3c-0.1,0-0.1-0.1-0.1-0.1
						c0-0.1,0.1-0.1,0.1-0.1c0.5,0.1,0.9,0.2,1.4,0.3C26.8,45.7,26.8,45.7,26.7,45.9C26.8,45.8,26.8,45.9,26.7,45.9z M1.9,45.8
						L1.9,45.8c-0.1,0-0.1-0.1-0.1-0.1c0.1-0.5,0.2-1,0.4-1.4c0-0.1,0.1-0.1,0.1-0.1c0.1,0,0.1,0.1,0.1,0.1
						C2.3,44.8,2.1,45.2,1.9,45.8C2,45.8,2,45.8,1.9,45.8z M34,45.8c0,0-0.1,0-0.1-0.1c0-0.1,0-0.1,0.1-0.1c0.5-0.1,0.9-0.2,1.4-0.4
						c0.1,0,0.1,0,0.1,0.1c0,0.1,0,0.1-0.1,0.1C34.9,45.5,34.4,45.6,34,45.8C34,45.8,34,45.8,34,45.8z M24.6,45.3
						C24.6,45.3,24.5,45.3,24.6,45.3c-0.5-0.2-1-0.3-1.4-0.5c-0.1,0-0.1-0.1-0.1-0.2c0-0.1,0.1-0.1,0.2-0.1c0.4,0.2,0.9,0.4,1.4,0.5
						C24.7,45.1,24.7,45.2,24.6,45.3C24.7,45.3,24.6,45.3,24.6,45.3z M22.5,44.6C22.5,44.6,22.5,44.6,22.5,44.6
						c-0.5-0.2-0.9-0.4-1.4-0.7c0,0-0.1-0.1,0-0.2c0,0,0.1-0.1,0.2,0c0.4,0.2,0.9,0.4,1.3,0.6c0.1,0,0.1,0.1,0.1,0.2
						C22.6,44.5,22.6,44.6,22.5,44.6z M2.6,43.7C2.6,43.7,2.6,43.7,2.6,43.7c-0.1,0-0.1-0.1-0.1-0.2c0-0.1,0.1-0.1,0.1-0.2
						C2.8,43,3,42.6,3.2,42.3c0,0,0.1-0.1,0.2,0s0.1,0.1,0,0.2c-0.2,0.3-0.4,0.7-0.6,1.1C2.8,43.5,2.7,43.6,2.6,43.7
						C2.7,43.7,2.6,43.7,2.6,43.7z M20.6,43.5C20.5,43.5,20.5,43.5,20.6,43.5c-0.2-0.1-0.3-0.2-0.4-0.2c-0.3-0.2-0.5-0.3-0.9-0.6
						c0,0-0.1-0.1,0-0.2s0.1-0.1,0.2,0c0.3,0.2,0.6,0.4,0.9,0.6c0.1,0.1,0.2,0.2,0.4,0.2c0,0,0.1,0.1,0,0.2
						C20.6,43.5,20.6,43.5,20.6,43.5z M18.7,42.4C18.7,42.4,18.7,42.4,18.7,42.4L18.7,42.4c-0.5-0.3-0.9-0.6-1.3-0.8
						c0,0-0.1-0.1,0-0.2s0.1-0.1,0.2,0c0.4,0.3,0.8,0.5,1.2,0.8l0,0C18.8,42.2,18.9,42.3,18.7,42.4C18.8,42.3,18.8,42.4,18.7,42.4z
						 M3.7,41.8C3.7,41.8,3.7,41.8,3.7,41.8c-0.1-0.1-0.1-0.1-0.1-0.2c0.3-0.4,0.6-0.8,1-1.1c0,0,0.1,0,0.2,0s0,0.1,0,0.2
						C4.5,41.1,4.1,41.4,3.7,41.8C3.8,41.8,3.8,41.8,3.7,41.8z M16.9,41.2C16.9,41.2,16.8,41.2,16.9,41.2c-0.5-0.3-0.9-0.6-1.3-0.8
						c0,0-0.1-0.1,0-0.2c0,0,0.1-0.1,0.2,0c0.4,0.2,0.8,0.5,1.3,0.8C17,41,17,41.1,16.9,41.2C17,41.1,16.9,41.2,16.9,41.2z
						 M5.3,40.3C5.3,40.3,5.2,40.3,5.3,40.3c-0.1-0.1-0.1-0.2-0.1-0.2c0.4-0.3,0.8-0.6,1.3-0.8c0,0,0.1,0,0.2,0c0,0,0,0.1,0,0.2
						C6.2,39.8,5.8,40,5.3,40.3C5.3,40.3,5.3,40.3,5.3,40.3z M15,40.1C15,40.1,14.9,40.1,15,40.1c-0.5-0.3-0.9-0.4-1.4-0.6
						c-0.1,0-0.1-0.1-0.1-0.2c0-0.1,0.1-0.1,0.2-0.1c0.4,0.2,0.9,0.4,1.3,0.6c0,0,0.1,0.1,0,0.2C15.1,40.1,15,40.1,15,40.1z
						 M7.2,39.3c0,0-0.1,0-0.1-0.1c0-0.1,0-0.1,0.1-0.1c0.5-0.2,0.9-0.3,1.4-0.4c0.1,0,0.1,0,0.1,0.1c0,0.1,0,0.1-0.1,0.1
						C8.2,39,7.7,39.1,7.2,39.3C7.2,39.3,7.2,39.3,7.2,39.3z M13,39.2C12.9,39.2,12.9,39.2,13,39.2c-0.2,0-0.2-0.1-0.4-0.1
						c-0.4-0.1-0.7-0.2-1.1-0.3c-0.1,0-0.1-0.1-0.1-0.1c0-0.1,0.1-0.1,0.1-0.1c0.4,0.1,0.8,0.2,1.1,0.3c0.1,0,0.2,0.1,0.3,0.1
						c0.1,0,0.1,0.1,0.1,0.1C13.1,39.2,13,39.2,13,39.2z M9.3,38.8c-0.1,0-0.1,0-0.1-0.1c0-0.1,0-0.1,0.1-0.1c0.5,0,1,0,1.5,0
						c0.1,0,0.1,0.1,0.1,0.1c0,0.1-0.1,0.1-0.1,0.1C10.3,38.7,9.8,38.7,9.3,38.8C9.4,38.8,9.4,38.8,9.3,38.8z"/>
				</g>
				<g>
					<path class="st30" d="M36.1,45.1c0,0-0.1,0-0.1-0.1c0-0.1,0-0.1,0.1-0.1c0.2-0.1,0.5-0.2,0.7-0.3c0.1,0,0.1,0,0.2,0.1
						c0,0.1,0,0.1-0.1,0.2C36.6,45,36.3,45.1,36.1,45.1C36.1,45.1,36.1,45.1,36.1,45.1z"/>
				</g>
			</g>
			<g>
				<path class="st30" d="M104.4,21.9C104.4,21.9,104.4,21.9,104.4,21.9c-0.1-0.1-0.1-0.1-0.1-0.2c0.2-0.2,0.4-0.4,0.6-0.6
					c0,0,0.1,0,0.2,0c0,0,0,0.1,0,0.2C104.9,21.4,104.7,21.7,104.4,21.9C104.5,21.9,104.5,21.9,104.4,21.9z M105.5,20.6
					C105.4,20.6,105.4,20.6,105.5,20.6c-0.1-0.1-0.1-0.1-0.1-0.2c0.3-0.4,0.5-0.8,0.8-1.3c0,0,0.1-0.1,0.2,0c0,0,0.1,0.1,0,0.2
					C106.1,19.8,105.8,20.2,105.5,20.6C105.5,20.6,105.5,20.6,105.5,20.6z M68.5,20c-0.1,0-0.1,0-0.1-0.1s0-0.1,0.1-0.1
					c0.5,0,1,0,1.5-0.1c0.1,0,0.1,0,0.1,0.1c0,0.1,0,0.1-0.1,0.1C69.5,20,69,20,68.5,20L68.5,20z M67.8,20L67.8,20
					c-0.5,0-1-0.1-1.5-0.3c-0.1,0-0.1-0.1-0.1-0.1c0-0.1,0.1-0.1,0.1-0.1c0.4,0.1,0.9,0.2,1.4,0.3c0.1,0,0.1,0.1,0.1,0.1
					C67.9,20,67.8,20,67.8,20z M70.7,19.7c0,0-0.1,0-0.1-0.1s0-0.1,0.1-0.1c0.3-0.1,0.6-0.2,0.8-0.3c0.2-0.1,0.4-0.2,0.6-0.2
					c0.1,0,0.1,0,0.2,0.1s0,0.1-0.1,0.2c-0.2,0.1-0.4,0.2-0.6,0.2C71.3,19.6,71,19.7,70.7,19.7C70.7,19.7,70.7,19.7,70.7,19.7z
					 M65.6,19.5C65.6,19.5,65.6,19.5,65.6,19.5c-0.5-0.2-0.9-0.4-1.3-0.7c0,0,0,0,0,0c0,0-0.1-0.1,0-0.2c0,0,0.1-0.1,0.2,0
					c0,0,0,0,0,0c0.4,0.3,0.8,0.5,1.2,0.7c0.1,0,0.1,0.1,0.1,0.2C65.7,19.4,65.7,19.5,65.6,19.5z M72.8,18.9
					C72.7,18.9,72.7,18.9,72.8,18.9c-0.1-0.1-0.1-0.2,0-0.2c0.4-0.2,0.8-0.5,1.2-0.8c0,0,0.1,0,0.2,0c0,0,0,0.1,0,0.2
					C73.7,18.4,73.3,18.6,72.8,18.9C72.8,18.9,72.8,18.9,72.8,18.9z M106.5,18.7C106.5,18.7,106.5,18.7,106.5,18.7
					c-0.1,0-0.1-0.1-0.1-0.2c0.2-0.4,0.4-0.9,0.5-1.4c0-0.1,0.1-0.1,0.1-0.1c0.1,0,0.1,0.1,0.1,0.1C107,17.7,106.8,18.2,106.5,18.7
					C106.6,18.7,106.6,18.7,106.5,18.7z M63.8,18.2C63.8,18.2,63.8,18.2,63.8,18.2c-0.4-0.4-0.6-0.9-0.7-1.4c0-0.1,0-0.1,0.1-0.1
					c0.1,0,0.1,0,0.1,0.1c0.1,0.5,0.3,0.9,0.6,1.3C64,18.1,64,18.1,63.8,18.2C63.9,18.2,63.9,18.2,63.8,18.2z M74.6,17.7
					C74.6,17.7,74.6,17.7,74.6,17.7c-0.1-0.1-0.1-0.2-0.1-0.2c0.4-0.3,0.7-0.6,1.1-1c0,0,0.1,0,0.2,0c0,0,0,0.1,0,0.2
					C75.4,17,75.1,17.3,74.6,17.7C74.7,17.7,74.6,17.7,74.6,17.7z M107.2,16.6L107.2,16.6c-0.1,0-0.1-0.1-0.1-0.1
					c0.1-0.5,0.2-1,0.2-1.5c0-0.1,0-0.1,0.1-0.1c0.1,0,0.1,0.1,0.1,0.1c0,0.5-0.1,1-0.2,1.5C107.3,16.6,107.2,16.6,107.2,16.6z
					 M76.3,16.2C76.2,16.2,76.2,16.2,76.3,16.2c-0.1-0.1-0.1-0.1-0.1-0.2c0.3-0.3,0.7-0.7,1-1.1c0,0,0.1,0,0.2,0c0,0,0,0.1,0,0.2
					c-0.3,0.4-0.7,0.8-1,1.1C76.3,16.2,76.3,16.2,76.3,16.2z M63.2,16.1L63.2,16.1c-0.1,0-0.1-0.1-0.1-0.1c0-0.6,0.2-1.1,0.5-1.4
					c0,0,0.1,0,0.2,0c0,0,0,0.1,0,0.2c-0.3,0.3-0.4,0.8-0.5,1.3C63.4,16.1,63.3,16.1,63.2,16.1z M77.7,14.5
					C77.7,14.5,77.7,14.5,77.7,14.5c-0.1-0.1-0.1-0.1-0.1-0.2c0.3-0.4,0.6-0.8,0.9-1.2c0,0,0.1-0.1,0.2,0c0,0,0.1,0.1,0,0.2
					C78.4,13.7,78.1,14.1,77.7,14.5C77.8,14.5,77.7,14.5,77.7,14.5z M107.4,14.4c-0.1,0-0.1,0-0.1-0.1c0-0.5,0-1-0.1-1.5
					c0-0.1,0-0.1,0.1-0.1c0.1,0,0.1,0,0.1,0.1c0.1,0.5,0.1,1,0.1,1.5C107.5,14.3,107.4,14.4,107.4,14.4L107.4,14.4z M64.3,14.3
					c0,0-0.1,0-0.1-0.1c0,0,0-0.1,0-0.2c0.4-0.2,0.9-0.3,1.5-0.2c0.1,0,0.1,0.1,0.1,0.1c0,0.1-0.1,0.1-0.1,0.1
					C65.2,14,64.7,14.1,64.3,14.3C64.3,14.3,64.3,14.3,64.3,14.3z M79.1,12.8C79,12.8,79,12.8,79.1,12.8c-0.1-0.1-0.1-0.1-0.1-0.2
					c0.3-0.4,0.6-0.8,0.8-1.2v0c0,0,0.1-0.1,0.2,0c0,0,0.1,0.1,0,0.2v0C79.7,11.9,79.4,12.3,79.1,12.8
					C79.1,12.7,79.1,12.8,79.1,12.8z M107.2,12.2c0,0-0.1,0-0.1-0.1c-0.1-0.5-0.2-0.9-0.4-1.4c0-0.1,0-0.1,0.1-0.1
					c0.1,0,0.1,0,0.1,0.1c0.2,0.5,0.3,0.9,0.4,1.5C107.3,12.1,107.3,12.2,107.2,12.2C107.2,12.2,107.2,12.2,107.2,12.2z M80.3,10.9
					C80.3,10.9,80.3,10.9,80.3,10.9c-0.1-0.1-0.1-0.1-0.1-0.2c0.4-0.5,0.6-0.9,0.9-1.2c0,0,0.1-0.1,0.2,0c0,0,0.1,0.1,0,0.2
					C81.1,10,80.8,10.4,80.3,10.9C80.4,10.9,80.4,10.9,80.3,10.9z M106.6,10c0,0-0.1,0-0.1-0.1c-0.2-0.5-0.4-0.9-0.6-1.3
					c0,0,0-0.1,0-0.2c0,0,0.1,0,0.2,0c0.2,0.4,0.4,0.9,0.6,1.4C106.7,10,106.7,10,106.6,10C106.6,10,106.6,10,106.6,10z M81.6,9.2
					C81.6,9.2,81.6,9.2,81.6,9.2C81.5,9.1,81.5,9,81.6,9c0.3-0.4,0.6-0.8,0.9-1.1c0,0,0.1,0,0.2,0c0,0,0,0.1,0,0.2
					C82.4,8.3,82.1,8.7,81.6,9.2C81.7,9.1,81.7,9.2,81.6,9.2z M105.6,8C105.5,8,105.5,8,105.6,8c-0.4-0.5-0.6-0.9-0.9-1.2
					c0,0,0-0.1,0-0.2c0,0,0.1,0,0.2,0c0.3,0.4,0.6,0.8,0.9,1.2C105.7,7.9,105.7,8,105.6,8C105.6,8,105.6,8,105.6,8z M83.1,7.4
					C83,7.4,83,7.4,83.1,7.4C83,7.4,83,7.3,83,7.3c0.4-0.4,0.7-0.8,1-1.1c0,0,0.1,0,0.2,0c0,0,0,0.1,0,0.2c-0.3,0.3-0.7,0.7-1,1.1
					C83.1,7.4,83.1,7.4,83.1,7.4z M104.2,6.3C104.2,6.3,104.2,6.3,104.2,6.3c-0.4-0.4-0.8-0.7-1.2-1c0,0-0.1-0.1,0-0.2
					c0,0,0.1-0.1,0.2,0c0.4,0.3,0.8,0.6,1.1,1C104.4,6.1,104.4,6.2,104.2,6.3C104.3,6.3,104.3,6.3,104.2,6.3z M84.6,5.9
					C84.6,5.9,84.6,5.8,84.6,5.9c-0.1-0.1-0.1-0.2-0.1-0.2c0.1-0.1,0.2-0.2,0.3-0.3c0.3-0.2,0.6-0.4,0.8-0.6c0,0,0.1,0,0.2,0
					c0,0,0,0.1,0,0.2c-0.3,0.2-0.6,0.4-0.8,0.6C84.9,5.6,84.8,5.7,84.6,5.9C84.7,5.9,84.7,5.9,84.6,5.9z M102.5,4.9
					C102.5,4.9,102.5,4.9,102.5,4.9c-0.5-0.3-0.9-0.6-1.3-0.8c0,0-0.1-0.1,0-0.2c0,0,0.1-0.1,0.2,0c0.4,0.2,0.9,0.5,1.3,0.8
					C102.7,4.7,102.7,4.8,102.5,4.9C102.6,4.8,102.6,4.9,102.5,4.9z M86.4,4.6C86.4,4.6,86.4,4.5,86.4,4.6c-0.1-0.1-0.1-0.2,0-0.2
					c0.4-0.3,0.9-0.5,1.3-0.7c0,0,0.1,0,0.2,0c0,0.1,0,0.1,0,0.2C87.3,4.1,86.9,4.3,86.4,4.6C86.5,4.5,86.4,4.6,86.4,4.6z
					 M100.6,3.8C100.6,3.8,100.6,3.8,100.6,3.8c-0.5-0.2-0.9-0.4-1.4-0.6c-0.1,0-0.1-0.1-0.1-0.1C99.2,3,99.2,3,99.3,3
					c0.5,0.2,0.9,0.4,1.4,0.6C100.7,3.6,100.8,3.6,100.6,3.8C100.7,3.7,100.6,3.8,100.6,3.8z M88.4,3.5c0,0-0.1,0-0.1-0.1
					c0-0.1,0-0.1,0.1-0.2c0.5-0.2,0.9-0.4,1.4-0.5c0.1,0,0.1,0,0.1,0.1c0,0.1,0,0.1-0.1,0.1C89.3,3.1,88.9,3.3,88.4,3.5
					C88.4,3.5,88.4,3.5,88.4,3.5z M98.5,3L98.5,3c-0.5-0.1-1-0.2-1.5-0.3C97,2.6,97,2.6,97,2.5c0-0.1,0.1-0.1,0.1-0.1
					c0.5,0.1,1,0.2,1.5,0.4c0.1,0,0.1,0.1,0.1,0.1C98.6,3,98.6,3,98.5,3z M90.5,2.8c0,0-0.1,0-0.1-0.1c0-0.1,0-0.1,0.1-0.1
					c0.5-0.1,1-0.2,1.5-0.3c0.1,0,0.1,0,0.1,0.1c0,0.1,0,0.1-0.1,0.1C91.5,2.6,91,2.7,90.5,2.8C90.5,2.8,90.5,2.8,90.5,2.8z
					 M96.4,2.5L96.4,2.5c-0.5-0.1-1-0.1-1.5-0.1c-0.1,0-0.1,0-0.1-0.1s0-0.1,0.1-0.1c0.5,0,1,0.1,1.5,0.1
					C96.4,2.3,96.5,2.4,96.4,2.5C96.5,2.5,96.4,2.5,96.4,2.5z M92.7,2.5c-0.1,0-0.1,0-0.1-0.1c0-0.1,0-0.1,0.1-0.1
					c0.5,0,1-0.1,1.5-0.1l0,0c0.1,0,0.1,0,0.1,0.1s0,0.1-0.1,0.1C93.7,2.4,93.2,2.4,92.7,2.5C92.7,2.5,92.7,2.5,92.7,2.5z"/>
			</g>
			<g>
				<path class="st30" d="M129.6,44.1c-0.3,0-0.6,0-0.9-0.2c-0.1,0-0.1-0.1-0.1-0.1c0-0.1,0.1-0.1,0.1-0.1c0.5,0.2,0.9,0.2,1.4,0.1
					c0.1,0,0.1,0,0.1,0.1c0,0.1,0,0.1-0.1,0.1C130,44.1,129.8,44.1,129.6,44.1z M130.9,43.8c0,0-0.1,0-0.1-0.1c0,0,0-0.1,0-0.2
					c0.4-0.2,0.8-0.5,1.1-0.9c0,0,0.1,0,0.2,0c0,0,0,0.1,0,0.2C131.7,43.3,131.3,43.6,130.9,43.8C130.9,43.8,130.9,43.8,130.9,43.8z
					 M132.5,42.4C132.5,42.4,132.5,42.4,132.5,42.4c-0.1-0.1-0.1-0.1-0.1-0.2c0.3-0.4,0.6-0.8,0.8-1.2c0,0,0.1-0.1,0.2,0
					c0,0,0.1,0.1,0,0.2C133.2,41.6,132.9,42,132.5,42.4C132.6,42.4,132.6,42.4,132.5,42.4z M133.8,40.5
					C133.7,40.5,133.7,40.5,133.8,40.5c-0.1,0-0.1-0.1-0.1-0.2c0.2-0.4,0.4-0.9,0.6-1.3c0-0.1,0.1-0.1,0.2-0.1s0.1,0.1,0.1,0.2
					c-0.2,0.5-0.4,0.9-0.6,1.3C133.8,40.5,133.8,40.5,133.8,40.5z M134.7,38.5C134.7,38.5,134.7,38.5,134.7,38.5
					c-0.1,0-0.1-0.1-0.1-0.2c0.2-0.4,0.4-0.9,0.5-1.4c0-0.1,0.1-0.1,0.1-0.1c0.1,0,0.1,0.1,0.1,0.1C135.1,37.5,135,38,134.7,38.5
					C134.8,38.5,134.7,38.5,134.7,38.5z M135.4,36.4L135.4,36.4c-0.1,0-0.1-0.1-0.1-0.1c0.1-0.4,0.2-0.7,0.2-0.9s0.1-0.4,0.1-0.5
					c0-0.1,0.1-0.1,0.1-0.1c0.1,0,0.1,0.1,0.1,0.1c0,0.2-0.1,0.4-0.1,0.5c0,0.2-0.1,0.5-0.2,0.9C135.5,36.4,135.5,36.4,135.4,36.4z
					 M136,34.2L136,34.2c-0.1,0-0.1-0.1-0.1-0.1c0.2-0.5,0.3-1,0.5-1.4c0-0.1,0.1-0.1,0.1-0.1c0.1,0,0.1,0.1,0.1,0.1
					c-0.2,0.4-0.3,0.9-0.5,1.4C136.1,34.2,136,34.2,136,34.2z M136.7,32.1C136.7,32.1,136.7,32.1,136.7,32.1c-0.1,0-0.1-0.1-0.1-0.2
					c0.2-0.5,0.4-0.9,0.7-1.3c0,0,0.1-0.1,0.2,0c0,0,0.1,0.1,0,0.2c-0.2,0.4-0.5,0.8-0.7,1.3C136.8,32.1,136.8,32.1,136.7,32.1z
					 M137.8,30.2C137.8,30.2,137.8,30.2,137.8,30.2c-0.1-0.1-0.1-0.1-0.1-0.2c0.1-0.2,0.2-0.3,0.3-0.4c0.2-0.2,0.4-0.5,0.6-0.7
					c0,0,0.1,0,0.2,0s0,0.1,0,0.2c-0.2,0.2-0.4,0.4-0.6,0.7C138.1,29.9,138,30,137.8,30.2C137.9,30.2,137.8,30.2,137.8,30.2z
					 M139.3,28.6C139.3,28.6,139.2,28.6,139.3,28.6c-0.1-0.1-0.1-0.2-0.1-0.2c0.4-0.3,0.8-0.6,1.2-0.8c0,0,0.1,0,0.2,0
					c0,0,0,0.1,0,0.2C140.1,28,139.7,28.3,139.3,28.6C139.3,28.6,139.3,28.6,139.3,28.6z M141.2,27.4
					C141.1,27.4,141.1,27.4,141.2,27.4c-0.1-0.1-0.1-0.2,0-0.2c0.4-0.2,0.9-0.4,1.3-0.6c0.1,0,0.1,0,0.2,0.1c0,0.1,0,0.1-0.1,0.2
					C142.1,27,141.7,27.2,141.2,27.4C141.2,27.4,141.2,27.4,141.2,27.4z M143.2,26.5c0,0-0.1,0-0.1-0.1c0-0.1,0-0.1,0.1-0.1
					c0.4-0.2,0.9-0.3,1.4-0.5c0.1,0,0.1,0,0.1,0.1c0,0.1,0,0.1-0.1,0.1C144.1,26.2,143.7,26.3,143.2,26.5
					C143.2,26.5,143.2,26.5,143.2,26.5z M145.3,25.8c0,0-0.1,0-0.1-0.1c0-0.1,0-0.1,0.1-0.1c0.5-0.1,1-0.2,1.4-0.4
					c0.1,0,0.1,0,0.1,0.1c0,0.1,0,0.1-0.1,0.1C146.3,25.6,145.8,25.7,145.3,25.8C145.3,25.8,145.3,25.8,145.3,25.8z M147.5,25.3
					c0,0-0.1,0-0.1-0.1c0-0.1,0-0.1,0.1-0.1c0.5-0.1,1-0.2,1.5-0.2c0.1,0,0.1,0,0.1,0.1c0,0.1,0,0.1-0.1,0.1
					C148.5,25.1,148,25.2,147.5,25.3C147.5,25.3,147.5,25.3,147.5,25.3z M149.7,25c-0.1,0-0.1,0-0.1-0.1s0-0.1,0.1-0.1
					c0.3,0,0.5,0,0.8,0c0.1,0,0.1,0,0.1,0.1s0,0.1-0.1,0.1C150.2,25,150,25,149.7,25L149.7,25z"/>
			</g>
		</g>
	</g>
</g>
</svg>
